<svg version="1.1" id="Слой_1" xmlns="http://www.w3.org/2000/svg" x="0" y="0" width="120" height="90" xml:space="preserve"><style>.st0{fill:#cfff80}</style><path class="st0" d="M37.6 12c.6-.4 1.4-.8 2.1-1.2C50.1.7 44.7 5.2 49.9 0c-2.5 1.1-4.9 2.4-7.3 3.8-2.5 1.4-4.4 3.5-5.5 5.8l-.9 2.1C2.9 31.6 2.9 67.5 45.7 86.2c1.6.7 3.3 1.1 5.1 1.3l.7.1C2.4 68.7 4 31.5 37.6 12zM82.4 12l-2.1-1.2C69.9.8 75.3 5.2 70.1 0c2.5 1.1 5 2.4 7.3 3.8 2.5 1.4 4.4 3.5 5.4 5.8l.9 2.1c33.4 19.9 33.4 55.8-9.4 74.5-1.6.7-3.3 1.1-5.1 1.3l-.7.1C117.6 68.7 116 31.5 82.4 12zM20.3 88.3c3.1.7 6.3 1.2 9.5 1.6 3.1.3 6.2 0 9-1 2.2-.8 4.4-1.6 6.3-2.4-1.2-.5-2.2-1-3.5-1.6-.2.1-16.2 3-21.3 3.4zM99.7 88.3c-3.1.7-6.3 1.2-9.5 1.6-3.1.3-6.2 0-9-1-2.2-.8-4.4-1.6-6.3-2.4 1.2-.5 2.2-1 3.5-1.6.2.1 16.2 3 21.3 3.4z"/><path class="st0" d="M21.7 84.6c3.5.9 7.3.9 10.8-.1 1.7-.4 3.4-.9 5.4-1.5-1-.5-2.1-1.2-3.3-1.8-5.5.5-15.5 1.2-21.1.9 2.7 1 5.4 1.8 8.2 2.5zM98.3 84.6c-3.5.9-7.3.9-10.8-.1-1.7-.4-3.4-.9-5.4-1.5 1-.5 2.1-1.2 3.2-1.8 5.5.5 15.5 1.2 21.1.9-2.6 1-5.3 1.8-8.1 2.5zM24.9 80.1c2-.3 4.1-.6 6.2-1.1-.5-.3-1.5-1-2.9-2.1-3.2-.1-15.7-.9-20.3-1.8 2.7 1.5 5.5 2.9 8.4 4 2.7 1 5.7 1.4 8.6 1zM95.1 80.1c-2-.3-4.1-.6-6.2-1.1.5-.3 1.5-1 2.9-2.1 3.2-.1 15.8-.9 20.4-1.8-2.7 1.5-5.5 2.9-8.4 4-2.8 1-5.8 1.4-8.7 1zM19.3 74.7c2 0 3.9-.1 5.9-.3-.9-.8-1.6-1.5-2.5-2.4-1.2-.2-13.8-2.7-19-4.7 2.2 1.9 4.6 3.6 7.2 5.1 2.4 1.5 5.4 2.3 8.4 2.3zM100.7 74.7c-2 0-3.9-.1-5.9-.3.9-.8 1.6-1.5 2.5-2.4 1.2-.2 13.8-2.7 19-4.7-2.2 1.9-4.6 3.6-7.2 5.1-2.4 1.5-5.4 2.3-8.4 2.3zM13.8 68.5c2.1.3 4.2.6 6.3.7-.5-.7-1.5-1.9-2-2.7-.3-.1-11.7-4.2-17.1-7.3 1.9 2.3 4.1 4.5 6.5 6.5 1.7 1.5 3.9 2.4 6.3 2.8zM106.2 68.5c-2.1.3-4.2.6-6.3.7.5-.7 1.5-1.9 2-2.7.3-.1 11.7-4.2 17.1-7.2-1.9 2.3-4.1 4.5-6.4 6.5-1.8 1.4-4 2.3-6.4 2.7zM12.1 62.3c1.3.4 2.6.7 4.1 1-.7-1.4-1.3-2.6-1.4-3-2.4-1.1-12.7-7.6-14.8-9.2 1.1 2 2.5 4 3.9 5.8 2 2.5 4.9 4.4 8.2 5.4zM107.9 62.3c-1.3.4-2.7.7-4.1 1 .7-1.4 1.3-2.6 1.4-3 2.3-1.2 12.7-7.7 14.8-9.3-1.1 2-2.5 4-3.9 5.8-2 2.6-4.9 4.5-8.2 5.5zM9.4 55.2c1.4.7 2.8 1.3 4.1 1.8-.3-1.1-.4-1.4-.8-3.2-.6-.4-10-8.3-12.3-10.9.8 2.2 1.7 4.4 2.9 6.5 1.2 2.5 3.4 4.5 6.1 5.8zM110.6 55.2c-1.4.7-2.8 1.3-4.1 1.8.3-1.1.4-1.4.8-3.2.6-.4 10-8.3 12.3-10.9-.8 2.2-1.7 4.4-2.9 6.5-1.2 2.5-3.4 4.5-6.1 5.8zM7.4 47.3c1.5 1.1 3.1 2.1 4.7 3.1-.1-.7-.2-2.5-.3-3.3-1.7-1.9-7.8-9.3-9.5-12.2.3 2.6.8 5.3 1.6 7.8.7 1.8 1.9 3.4 3.5 4.6zM112.6 47.3c-1.5 1.1-3.1 2.1-4.7 3.1.1-.7.2-2.5.3-3.3 1.7-1.9 7.8-9.3 9.5-12.2-.3 2.6-.8 5.3-1.6 7.8-.7 1.8-1.9 3.4-3.5 4.6zM8.3 40.3c1.1 1.1 2.3 2.2 3.5 3.2.1-.7.1-1.5.4-3.2-.9-1.5-5-9.5-6.2-13-.3 2.5-.4 4.9-.3 7.4.2 2.1 1.1 4.1 2.6 5.6zM111.7 40.3c-1.1 1.1-2.3 2.2-3.5 3.2-.1-.7-.1-1.5-.4-3.2.9-1.5 5-9.5 6.2-13 .3 2.5.4 4.9.3 7.4-.2 2.1-1.1 4.1-2.6 5.6zM12.9 36.9c.4-1.5.7-2.1 1-3.1-.2-.8-2.5-9.8-2.9-13.2-.9 2.3-1.5 4.6-1.9 7-.3 2 .1 4.1 1.3 5.9.8 1.2 1.6 2.4 2.5 3.4zM107.1 36.9c-.4-1.5-.7-2.1-1-3.1.2-.8 2.5-9.8 2.9-13.2.9 2.3 1.5 4.6 1.9 7 .3 2-.1 4.1-1.3 5.9-.8 1.2-1.6 2.4-2.5 3.4zM15.4 30.6c.3-.6.9-1.7 1.7-2.9-.1-1.3-.1-11.5.1-13-1.1 1.8-2 3.7-2.8 5.6-1.1 2.4-1.1 5.1-.2 7.6.4 1 .9 1.9 1.2 2.7zM104.6 30.6c-.3-.6-.9-1.7-1.7-2.9.1-1.3.1-11.5-.1-13 1.1 1.8 2 3.7 2.8 5.6 1.1 2.4 1.1 5.1.2 7.6-.4 1-.8 1.9-1.2 2.7zM19.3 24.7c.7-.9 1.5-1.8 2.3-2.7.1-.6 2.5-12.2 2.5-12.3-1.5 1.8-2.8 3.6-4.1 5.5-1.2 1.8-1.7 4-1.4 6.1.2 1.2.4 2.4.7 3.4zM100.7 24.7c-.7-.9-1.5-1.8-2.3-2.7-.1-.6-2.5-12.2-2.5-12.3 1.5 1.8 2.8 3.6 4.1 5.5 1.2 1.8 1.7 4 1.4 6-.2 1.3-.4 2.5-.7 3.5zM27.1 16.9l4.5-11.4c-2 1.9-3.8 3.7-5.2 5.2-1.2 1.3-1.9 3-2 4.7-.1 1.6-.1 2.9-.1 3.9.3-.2 1-.9 2.8-2.4zM93 16.9L88.4 5.5c2 1.9 3.8 3.7 5.2 5.2 1.2 1.3 1.9 3 2 4.7.1 1.6.1 2.9.1 3.9-.3-.2-1-.9-2.7-2.4zM30.2 14.5c1.1-.7 1.8-1.2 3.1-2.1C40 1.6 35.2 9.2 39.4 2c-2.2 1.6-4 3-5.6 4.4-1.6 1.3-2.6 3-3 4.9-.3 1.4-.5 2.5-.6 3.2zM89.8 14.5c-1.1-.7-1.8-1.2-3.1-2.1C80 1.6 84.8 9.2 80.6 2c2.2 1.6 4 3 5.6 4.4 1.6 1.3 2.6 3 3 4.9.3 1.4.5 2.5.6 3.2z"/><path class="st0" d="M60 87.9C1.5 68 10.1 30.5 39.9 12 5.6 30.3 1.1 69.4 57.1 88.8c1.4.5 1.4.5 2.9 1.1 1.4-.6 1.4-.6 2.9-1.1C119 69.4 114.5 30.3 80.1 12c29.8 18.5 38.4 56-20.1 75.9z"/><path d="M37.7 51V40.7h3.7v-3H30.5v3h3.7V51h3.5zm8.1.2c3.3 0 5.3-2.4 5.3-5.1s-2-5.1-5.3-5.1-5.3 2.3-5.3 5.1 2.1 5.1 5.3 5.1zm0-2.7c-1.3 0-2.1-1.1-2.1-2.4 0-1.3.7-2.3 2.1-2.3 1.4 0 2.1 1.1 2.1 2.3.1 1.4-.7 2.4-2.1 2.4zM62.4 51v-9.7h-9.6V51h3.1v-7h3.5v7h3zm13.9 0V37.7h-3l-4.7 4.6 2 2.1 2.2-2.3V51h3.5zm7.4.2c3.5 0 5.6-1.8 5.6-4.7 0-2.7-2-4.3-4.3-4.3-1.2 0-2.2.4-2.9 1.1v-2.6h6.2v-3h-9.7v7.9l2.4.6c.7-.7 1.6-1 2.6-1 1.4 0 2.1.6 2.1 1.5 0 .8-.7 1.5-2.2 1.5-1.3 0-2.5-.5-3.5-1.3l-1.9 2.4c1.5 1.2 3.3 1.9 5.6 1.9z" fill="#fff"/></svg>