<svg width="120" height="90" fill="none" xmlns="http://www.w3.org/2000/svg"><g clip-path="url(#clip0)"><path d="M37.63 11.97c.647-.377 1.39-.787 2.122-1.185C50.143.74 44.695 5.204 49.922 0a70.338 70.338 0 00-7.274 3.769c-2.478 1.438-4.38 3.477-5.454 5.847-.317.69-.613 1.389-.894 2.088-33.415 19.9-33.4 55.753 9.418 74.477a17.105 17.105 0 005.098 1.325l.652.064C2.408 68.73 4.039 31.452 37.63 11.97zM82.395 11.97a85.549 85.549 0 00-2.127-1.185C69.862.74 75.31 5.204 70.078 0a70.331 70.331 0 017.29 3.769c2.472 1.44 4.37 3.479 5.443 5.847.311.69.607 1.389.893 2.088 33.411 19.9 33.401 55.753-9.417 74.477a17.139 17.139 0 01-5.098 1.325l-.657.064c49.065-18.839 47.429-56.118 13.863-75.6zM20.335 88.298a88.093 88.093 0 009.533 1.575c3.051.344 6.156.003 9.002-.987a114.573 114.573 0 006.291-2.388c-1.179-.516-2.167-.96-3.482-1.588-.29.06-16.316 2.977-21.344 3.388zM99.665 88.298a87.885 87.885 0 01-9.533 1.575 20.526 20.526 0 01-9.002-.987 114.36 114.36 0 01-6.286-2.388c1.174-.516 2.162-.96 3.477-1.588.29.06 16.321 2.977 21.344 3.388z" fill="#CFFF80"/><path d="M21.69 84.627c3.543.875 7.311.857 10.842-.051 1.696-.423 3.427-.932 5.359-1.546a117.563 117.563 0 01-3.251-1.829c-5.52.517-15.489 1.169-21.073.915a76.318 76.318 0 008.123 2.51zM98.31 84.627a22.313 22.313 0 01-10.843-.051c-1.69-.423-3.421-.932-5.353-1.546a112.9 112.9 0 003.246-1.829c5.52.517 15.489 1.169 21.073.915a76.73 76.73 0 01-8.123 2.51zM24.936 80.092c2.042-.263 4.11-.61 6.217-1.063-.452-.31-1.455-.978-2.93-2.117-3.237-.068-15.765-.932-20.356-1.838a60.68 60.68 0 008.414 3.993c2.707 1.04 5.713 1.395 8.655 1.025zM95.069 80.092a74.622 74.622 0 01-6.217-1.063c.452-.31 1.45-.978 2.93-2.117 3.232-.068 15.76-.932 20.356-1.838a60.71 60.71 0 01-8.414 3.993c-2.708 1.04-5.714 1.395-8.655 1.025zM19.262 74.68a61.994 61.994 0 005.89-.254c-.908-.847-1.64-1.507-2.509-2.417-1.194-.191-13.772-2.715-19.016-4.658a50.817 50.817 0 007.23 5.081c2.466 1.453 5.398 2.237 8.405 2.248zM100.744 74.68a62.17 62.17 0 01-5.896-.254c.908-.847 1.64-1.507 2.509-2.417 1.194-.191 13.772-2.715 19.016-4.658a50.885 50.885 0 01-7.235 5.081c-2.463 1.45-5.391 2.235-8.394 2.248zM13.818 68.515c2.077.333 4.177.56 6.287.678-.542-.69-1.465-1.88-2.007-2.71-.306-.102-11.656-4.21-17.09-7.237a48.218 48.218 0 006.468 6.458c1.736 1.448 3.944 2.427 6.342 2.811zM106.182 68.515a61.652 61.652 0 01-6.281.678c.536-.69 1.46-1.88 2.007-2.71.306-.102 11.655-4.21 17.059-7.237a48.183 48.183 0 01-6.448 6.458c-1.735 1.447-3.94 2.426-6.337 2.811zM12.132 62.333c1.31.39 2.65.728 4.064 1.029-.748-1.376-1.274-2.634-1.415-2.964C12.443 59.162 2.092 52.692 0 51.082a46.905 46.905 0 003.919 5.827c1.954 2.523 4.841 4.43 8.213 5.424zM107.873 62.333a52.92 52.92 0 01-4.064 1.029c.747-1.376 1.269-2.634 1.41-2.964 2.338-1.236 12.689-7.706 14.781-9.316a46.885 46.885 0 01-3.919 5.827c-1.953 2.522-4.839 4.429-8.208 5.424zM9.387 55.215a53.765 53.765 0 004.135 1.825c-.316-1.088-.417-1.393-.818-3.163-.592-.423-9.96-8.346-12.328-10.928a41.632 41.632 0 002.88 6.541c1.291 2.4 3.434 4.4 6.131 5.725zM110.613 55.215a53.655 53.655 0 01-4.13 1.825c.311-1.088.417-1.393.813-3.163.597-.423 9.96-8.346 12.328-10.928a40.75 40.75 0 01-2.88 6.541c-1.291 2.4-3.434 4.4-6.131 5.725zM7.406 47.284a55.118 55.118 0 004.676 3.07c-.106-.669-.221-2.54-.256-3.281-1.686-1.893-7.762-9.316-9.458-12.166a36.72 36.72 0 001.646 7.821c.567 1.77 1.748 3.357 3.392 4.556zM112.599 47.284a55.01 55.01 0 01-4.681 3.07c.111-.669.226-2.54.256-3.281 1.691-1.893 7.762-9.316 9.458-12.166a36.446 36.446 0 01-1.626 7.821c-.573 1.771-1.759 3.357-3.407 4.556zM8.309 40.349a40.855 40.855 0 003.512 3.21c.05-.674.095-1.521.366-3.198-.893-1.499-4.992-9.501-6.166-12.982a37.682 37.682 0 00-.281 7.41c.135 2.036 1.034 3.984 2.569 5.56zM111.696 40.349a42.325 42.325 0 01-3.512 3.21c-.05-.674-.095-1.521-.366-3.198.888-1.499 5.017-9.501 6.171-12.982.338 2.459.431 4.938.276 7.41-.134 2.036-1.034 3.984-2.569 5.56zM12.915 36.949c.446-1.538.662-2.058 1.048-3.083-.24-.817-2.508-9.82-2.89-13.232a37.25 37.25 0 00-1.876 6.986c-.345 2.039.094 4.117 1.254 5.928a35.198 35.198 0 002.464 3.4zM107.085 36.949c-.446-1.538-.657-2.058-1.048-3.083.246-.817 2.509-9.82 2.89-13.232a37.608 37.608 0 011.881 6.986c.341 2.04-.1 4.117-1.259 5.928a34.343 34.343 0 01-2.464 3.4zM15.433 30.622c.337-.647.919-1.66 1.721-2.896-.07-1.334-.055-11.517.06-12.957a47.885 47.885 0 00-2.85 5.556 9.812 9.812 0 00-.155 7.554c.396 1.007.843 1.943 1.224 2.743zM104.567 30.622c-.331-.647-.913-1.66-1.716-2.896.07-1.334.055-11.517-.065-12.957a47.158 47.158 0 012.849 5.556 9.785 9.785 0 01.156 7.554 30.597 30.597 0 01-1.224 2.743zM19.292 24.72a35.343 35.343 0 012.298-2.655c.1-.563 2.508-12.22 2.508-12.28a59.473 59.473 0 00-4.084 5.505c-1.212 1.846-1.702 3.968-1.4 6.064.191 1.164.412 2.299.678 3.366zM100.713 24.72a36.4 36.4 0 00-2.297-2.655c-.106-.563-2.51-12.22-2.54-12.28a60.508 60.508 0 014.09 5.505c1.199 1.842 1.684 3.956 1.385 6.042a31.665 31.665 0 01-.638 3.388zM27.054 16.937L31.569 5.53c-2.007 1.867-3.783 3.675-5.178 5.242-1.211 1.348-1.92 2.969-2.037 4.658-.11 1.647-.12 2.93-.075 3.887.306-.263.974-.893 2.775-2.38zM92.951 16.937L88.436 5.53c2.007 1.867 3.783 3.675 5.183 5.242 1.21 1.348 1.917 2.97 2.032 4.658.11 1.647.12 2.93.08 3.887-.321-.263-.983-.893-2.78-2.38zM30.184 14.52a79.258 79.258 0 013.141-2.118C39.973 1.63 35.197 9.243 39.421 2.02c-2.217 1.609-4.014 3.006-5.574 4.357-1.557 1.332-2.605 3.026-3.01 4.865-.352 1.46-.537 2.6-.653 3.277zM89.81 14.52c-1.063-.746-1.75-1.229-3.14-2.118C80.027 1.63 84.793 9.243 80.584 2.02c2.217 1.609 3.989 3.006 5.574 4.357 1.557 1.331 2.606 3.026 3.01 4.865.352 1.46.532 2.6.643 3.277z" fill="#CFFF80"/><path d="M60.002 87.883C1.535 68.016 10.075 30.487 39.913 11.958 5.554 30.275 1.109 69.405 57.143 88.798c1.445.512 1.445.512 2.86 1.084 1.414-.572 1.414-.572 2.854-1.084 56.054-19.394 51.594-58.523 17.23-76.84 29.843 18.529 38.378 56.058-20.085 75.925z" fill="#CFFF80"/><path d="M67.77 37.416c-1.228-.316-1.578.285-.887 1.33l.474.687c.743 1.056.33 1.7-.907 1.457l-20.804-4.086c-1.227-.243-1.578.359-.763 1.351l3.61 4.382c.815.982.454 1.785-.805 1.785h-19.73c-1.258 0-1.279.232-.051.517l36.016 8.342c1.227.285 1.63-.338.897-1.383l-3.91-5.544c-.731-1.056-.298-1.9.96-1.9h19.72c1.259 0 1.28.2 0 .443l-7.013 1.373c-1.238.242-1.784 1.056-1.217 1.921.41.438.93.751 1.503.908.573.156 1.177.149 1.746-.02l15.47-4.045c1.228-.316 1.228-.844 0-1.161l-24.31-6.357z" fill="#fff"/></g><defs><clipPath id="clip0"><path fill="#fff" d="M0 0h120v90H0z"/></clipPath></defs></svg>