<svg width="80" height="80" viewBox="0 0 80 80" fill="none" xmlns="http://www.w3.org/2000/svg">
<rect width="80" height="80" fill="white"/>
<path d="M16.9255 66.0001V57.9961H15.5215V66.0001H16.9255Z" fill="#050505"/>
<path d="M19.851 66.0001V57.9961H18.591V66.0001H19.851Z" fill="#050505"/>
<path d="M22.7455 66.0001V57.9961H21.4855V66.0001H22.7455Z" fill="#050505"/>
<path d="M29.552 66.0001V60.2041H28.292V64.2721C27.992 64.6681 27.44 65.0281 26.804 65.0281C26.096 65.0281 25.64 64.7521 25.64 63.8521V60.2041H24.38V64.3081C24.38 65.4961 24.992 66.1441 26.24 66.1441C27.152 66.1441 27.872 65.7001 28.292 65.2321V66.0001H29.552Z" fill="#050505"/>
<path d="M33.1686 66.1441C34.7286 66.1441 35.5806 65.3641 35.5806 64.3441C35.5806 62.0401 32.0766 62.8081 32.0766 61.7761C32.0766 61.3681 32.4966 61.0681 33.1566 61.0681C33.8766 61.0681 34.5246 61.3681 34.8726 61.7641L35.4006 60.8761C34.8726 60.4081 34.1286 60.0601 33.1446 60.0601C31.6806 60.0601 30.8646 60.8761 30.8646 61.8241C30.8646 64.0441 34.3686 63.2281 34.3686 64.3681C34.3686 64.8241 33.9846 65.1481 33.2286 65.1481C32.4726 65.1481 31.6686 64.7521 31.2606 64.3321L30.6846 65.2441C31.2846 65.8321 32.1846 66.1441 33.1686 66.1441Z" fill="#050505"/>
<path d="M38.5888 66.1441C39.1768 66.1441 39.5488 65.9881 39.7768 65.7721L39.4768 64.8241C39.3808 64.9321 39.1528 65.0281 38.9128 65.0281C38.5528 65.0281 38.3608 64.7401 38.3608 64.3441V61.3081H39.5368V60.2041H38.3608V58.6201H37.1008V60.2041H36.1408V61.3081H37.1008V64.6561C37.1008 65.6161 37.6168 66.1441 38.5888 66.1441Z" fill="#050505"/>
<path d="M41.9408 66.0001V62.0521C42.1928 61.6441 42.9008 61.2841 43.4288 61.2841C43.5848 61.2841 43.7168 61.2961 43.8248 61.3201V60.0721C43.0688 60.0721 42.3728 60.5041 41.9408 61.0561V60.2041H40.6808V66.0001H41.9408Z" fill="#050505"/>
<path d="M49.641 66.0001V62.1601C49.641 60.6001 48.513 60.0601 47.229 60.0601C46.305 60.0601 45.465 60.3601 44.793 60.9961L45.309 61.8721C45.813 61.3801 46.377 61.1401 47.025 61.1401C47.829 61.1401 48.381 61.5481 48.381 62.2201V63.0841C47.961 62.5921 47.289 62.3401 46.509 62.3401C45.561 62.3401 44.493 62.8921 44.493 64.2241C44.493 65.5081 45.561 66.1441 46.509 66.1441C47.277 66.1441 47.949 65.8681 48.381 65.3761V66.0001H49.641ZM47.001 65.2801C46.293 65.2801 45.765 64.8721 45.765 64.2481C45.765 63.6121 46.293 63.2041 47.001 63.2041C47.553 63.2041 48.093 63.4081 48.381 63.8041V64.6801C48.093 65.0761 47.553 65.2801 47.001 65.2801Z" fill="#050505"/>
<path d="M53.0145 66.1441C53.6025 66.1441 53.9745 65.9881 54.2025 65.7721L53.9025 64.8241C53.8065 64.9321 53.5785 65.0281 53.3385 65.0281C52.9785 65.0281 52.7865 64.7401 52.7865 64.3441V61.3081H53.9625V60.2041H52.7865V58.6201H51.5265V60.2041H50.5665V61.3081H51.5265V64.6561C51.5265 65.6161 52.0425 66.1441 53.0145 66.1441Z" fill="#050505"/>
<path d="M57.7226 66.1441C59.5826 66.1441 60.7106 64.7641 60.7106 63.0961C60.7106 61.4401 59.5826 60.0601 57.7226 60.0601C55.8866 60.0601 54.7466 61.4401 54.7466 63.0961C54.7466 64.7641 55.8866 66.1441 57.7226 66.1441ZM57.7226 65.0281C56.6546 65.0281 56.0546 64.1281 56.0546 63.0961C56.0546 62.0761 56.6546 61.1761 57.7226 61.1761C58.8026 61.1761 59.4026 62.0761 59.4026 63.0961C59.4026 64.1281 58.8026 65.0281 57.7226 65.0281Z" fill="#050505"/>
<path d="M63.2455 66.0001V62.0521C63.4975 61.6441 64.2055 61.2841 64.7335 61.2841C64.8895 61.2841 65.0215 61.2961 65.1295 61.3201V60.0721C64.3735 60.0721 63.6775 60.5041 63.2455 61.0561V60.2041H61.9855V66.0001H63.2455Z" fill="#050505"/>
<g clip-path="url(#clip0)">
<path d="M26.2812 17.2847H54.4807V44.7149H26.2812V17.2847Z" fill="url(#paint0_radial)"/>
<path d="M26.2818 17.2847H54.4812V44.7151H26.2818V17.2847ZM25 45.9969H55.763V16.0029H25V45.9969ZM45.1497 26.6931C45.1497 26.5905 45.1882 26.5392 45.3036 26.5392H47.316C47.4184 26.5392 47.4698 26.5777 47.4698 26.6931V36.8064C47.4698 36.9089 47.4441 36.9602 47.316 36.9602H45.3292C45.201 36.9602 45.1625 36.8962 45.1625 36.7936V26.6931H45.1497ZM45.0087 23.7834C45.0087 22.963 45.5855 22.476 46.3162 22.476C47.0981 22.476 47.6236 23.0015 47.6236 23.7834C47.6236 24.6294 47.0725 25.0908 46.2906 25.0908C45.5471 25.0908 45.0087 24.6294 45.0087 23.7834ZM39.2407 30.9102C38.8818 29.4874 38.0359 26.3854 37.7154 24.8857H37.6897C37.4205 26.3854 36.7412 28.9233 36.2029 30.9102H39.2407V30.9102ZM35.6773 32.9867L34.6647 36.8321C34.6391 36.9345 34.6006 36.9602 34.4725 36.9602H32.5882C32.4601 36.9602 32.4344 36.9217 32.4601 36.7679L36.1003 24.0269C36.1644 23.7962 36.2028 23.5911 36.2285 22.963C36.2285 22.8733 36.2669 22.8349 36.331 22.8349H39.0228C39.1125 22.8349 39.1509 22.8605 39.1766 22.963L43.2527 36.7936C43.2783 36.896 43.2527 36.9602 43.1501 36.9602H41.0223C40.9198 36.9602 40.8557 36.9345 40.8301 36.8449L39.779 32.9867H35.6773V32.9867Z" fill="#FF7F18"/>
</g>
<defs>
<radialGradient id="paint0_radial" cx="0" cy="0" r="1" gradientUnits="userSpaceOnUse" gradientTransform="translate(35.5688 23.4318) scale(21.4315 20.7495)">
<stop stop-color="#423325" stop-opacity="0.98"/>
<stop offset="1" stop-color="#1C0A00"/>
</radialGradient>
<clipPath id="clip0">
<rect x="25" y="16" width="30.7629" height="30" fill="white"/>
</clipPath>
</defs>
</svg>
