<svg width="80" height="80" viewBox="0 0 80 80" fill="none" xmlns="http://www.w3.org/2000/svg">
<rect width="80" height="80" fill="white"/>
<path d="M55.7692 15H25V45H55.7692V15Z" fill="#35FA00"/>
<path d="M54.4872 16.2821H26.282V43.718H54.4872V16.2821Z" fill="#072600"/>
<path d="M29.0129 22.0641C29.0129 21.9615 29.0385 21.9103 29.1667 21.8974C29.6539 21.8718 31.0513 21.8333 32.4872 21.8333C36.7821 21.8333 38.9231 24.6026 38.9231 28.6667C38.9231 34.3205 35.218 36.0257 32.359 36.0257C31.2821 36.0257 29.718 36 29.1411 35.9872C29.0513 35.9872 29.0129 35.9231 29.0129 35.8205C29 35.8077 29 22.0641 29.0129 22.0641ZM31.3205 33.9487C31.6795 33.9744 32 33.9872 32.3975 33.9872C34.7693 33.9872 36.5257 32.3205 36.5385 28.718C36.5641 25.2051 34.7436 23.8462 32.4744 23.8462C32.0257 23.8462 31.6667 23.8718 31.3077 23.8846V33.9487H31.3205ZM47.577 35.9615C47.4231 35.9615 47.3846 35.9103 47.3718 35.7821C46.7436 32.2436 46.2052 29.7564 45.9744 28.0128H45.9487C45.6795 29.5769 45.1667 32.1795 44.3205 35.7949C44.2821 35.9231 44.2308 35.9615 44.1282 35.9615H42.0513C41.8975 35.9615 41.859 35.9359 41.8205 35.8077L39.5513 25.7051C39.5257 25.6154 39.577 25.5385 39.7052 25.5385H41.7821C41.8718 25.5385 41.9359 25.5641 41.9487 25.6539C42.7564 30.2051 43.0898 32.5513 43.218 33.4872H43.3077C43.4616 32.3846 43.8975 30.0898 44.8462 25.6923C44.8846 25.5641 44.8846 25.5385 45.0129 25.5385H47.1923C47.2949 25.5385 47.3205 25.5898 47.3462 25.6923C48.0898 29.859 48.577 32.4872 48.7052 33.5513H48.7693C48.9744 32.1923 49.2564 30.3718 50.1667 25.6795C50.1923 25.5898 50.2052 25.5385 50.3205 25.5385H52.2693C52.359 25.5385 52.4231 25.5769 52.3718 25.6923L49.859 35.8077C49.8334 35.9103 49.8205 35.9615 49.6667 35.9615H47.577Z" fill="#35FA00"/>
<path d="M10.6115 66.0236H8V59H10.6115C11.6996 59 12.5841 59.3264 13.2651 59.9793C13.946 60.6322 14.2865 61.4781 14.2865 62.5171C14.2865 63.549 13.946 64.3915 13.2651 65.0443C12.5912 65.6972 11.7066 66.0236 10.6115 66.0236ZM10.6115 64.939C11.3486 64.939 11.9348 64.7074 12.37 64.244C12.8053 63.7807 13.0229 63.2051 13.0229 62.5171C13.0229 61.8081 12.8088 61.2254 12.3806 60.7691C11.9594 60.3128 11.3697 60.0846 10.6115 60.0846H9.23203V64.939H10.6115Z" fill="black"/>
<path d="M16.5501 66.0236H15.4444V60.9376H16.5501V61.6852C16.7467 61.4325 16.9924 61.2254 17.2872 61.0639C17.5821 60.9025 17.8874 60.8217 18.2033 60.8217V61.9169C18.1051 61.8958 17.9892 61.8853 17.8558 61.8853C17.6242 61.8853 17.375 61.9555 17.1082 62.0959C16.8485 62.2293 16.6624 62.3837 16.5501 62.5592V66.0236Z" fill="black"/>
<path d="M21.4433 66.15C20.6711 66.15 20.0322 65.9043 19.5268 65.4129C19.0283 64.9145 18.7791 64.2686 18.7791 63.4753C18.7791 62.7312 19.0213 62.1029 19.5057 61.5904C19.9971 61.0709 20.6149 60.8112 21.359 60.8112C22.1102 60.8112 22.7139 61.0709 23.1702 61.5904C23.6335 62.1099 23.8652 62.7733 23.8652 63.5806V63.8439H19.9375C19.9796 64.244 20.1445 64.5775 20.4324 64.8443C20.7202 65.111 21.0958 65.2444 21.5591 65.2444C21.8188 65.2444 22.0786 65.1953 22.3383 65.097C22.6051 64.9987 22.8262 64.8618 23.0017 64.6863L23.5072 65.4129C22.9947 65.9043 22.3067 66.15 21.4433 66.15ZM22.7911 63.0647C22.7771 62.7136 22.6472 62.4013 22.4015 62.1275C22.1628 61.8537 21.8153 61.7168 21.359 61.7168C20.9238 61.7168 20.5833 61.8537 20.3376 62.1275C20.0919 62.3942 19.955 62.7066 19.9269 63.0647H22.7911Z" fill="black"/>
<path d="M29.1686 66.0236H28.063V65.4761C27.6698 65.9254 27.1223 66.15 26.4203 66.15C25.9569 66.15 25.5463 66.0026 25.1882 65.7077C24.8302 65.4059 24.6512 64.9917 24.6512 64.4652C24.6512 63.9246 24.8267 63.5139 25.1777 63.2331C25.5357 62.9523 25.9499 62.8119 26.4203 62.8119C27.1433 62.8119 27.6909 63.0296 28.063 63.4648V62.7066C28.063 62.4118 27.9542 62.1801 27.7365 62.0116C27.5189 61.8432 27.2311 61.7589 26.8731 61.7589C26.3044 61.7589 25.8025 61.973 25.3672 62.4013L24.9144 61.6325C25.4901 61.085 26.2026 60.8112 27.0521 60.8112C27.6769 60.8112 28.1858 60.9586 28.579 61.2535C28.9721 61.5483 29.1686 62.0151 29.1686 62.654V66.0236ZM26.852 65.3918C27.4066 65.3918 27.8103 65.2163 28.063 64.8653V64.0966C27.8103 63.7456 27.4066 63.5701 26.852 63.5701C26.5361 63.5701 26.2764 63.6543 26.0728 63.8228C25.8692 63.9913 25.7674 64.2124 25.7674 64.4862C25.7674 64.76 25.8692 64.9811 26.0728 65.1496C26.2764 65.3111 26.5361 65.3918 26.852 65.3918Z" fill="black"/>
<path d="M37.9417 66.0236H36.836V62.7066C36.836 62.0959 36.5587 61.7905 36.0041 61.7905C35.7725 61.7905 35.5478 61.8572 35.3302 61.9906C35.1126 62.124 34.9441 62.2819 34.8248 62.4644V66.0236H33.7191V62.7066C33.7191 62.0959 33.4383 61.7905 32.8767 61.7905C32.652 61.7905 32.4309 61.8572 32.2133 61.9906C32.0027 62.124 31.8342 62.2854 31.7078 62.475V66.0236H30.6022V60.9376H31.7078V61.6325C31.8342 61.443 32.0518 61.2605 32.3607 61.085C32.6766 60.9025 33.0101 60.8112 33.3611 60.8112C34.0982 60.8112 34.5615 61.1236 34.751 61.7484C34.9125 61.4957 35.1512 61.278 35.4671 61.0955C35.783 60.906 36.12 60.8112 36.478 60.8112C37.4538 60.8112 37.9417 61.3237 37.9417 62.3486V66.0236Z" fill="black"/>
<path d="M44.9654 66.0236H43.8071L42.6277 62.296L41.4483 66.0236H40.29L38.7105 60.9376H39.8583L40.9324 64.6337L42.1433 60.9376H43.1121L44.3231 64.6337L45.3971 60.9376H46.5449L44.9654 66.0236Z" fill="black"/>
<path d="M49.6609 66.15C48.8887 66.15 48.2498 65.9043 47.7444 65.4129C47.246 64.9145 46.9968 64.2686 46.9968 63.4753C46.9968 62.7312 47.2389 62.1029 47.7233 61.5904C48.2147 61.0709 48.8325 60.8112 49.5766 60.8112C50.3278 60.8112 50.9315 61.0709 51.3878 61.5904C51.8512 62.1099 52.0828 62.7733 52.0828 63.5806V63.8439H48.1551C48.1972 64.244 48.3622 64.5775 48.65 64.8443C48.9378 65.111 49.3134 65.2444 49.7767 65.2444C50.0365 65.2444 50.2962 65.1953 50.556 65.097C50.8227 64.9987 51.0439 64.8618 51.2194 64.6863L51.7248 65.4129C51.2123 65.9043 50.5244 66.15 49.6609 66.15ZM51.0088 63.0647C50.9947 62.7136 50.8648 62.4013 50.6191 62.1275C50.3805 61.8537 50.033 61.7168 49.5766 61.7168C49.1414 61.7168 48.8009 61.8537 48.5552 62.1275C48.3095 62.3942 48.1726 62.7066 48.1445 63.0647H51.0088Z" fill="black"/>
<path d="M57.3863 66.0236H56.2806V65.4761C55.8875 65.9254 55.3399 66.15 54.6379 66.15C54.1746 66.15 53.7639 66.0026 53.4059 65.7077C53.0478 65.4059 52.8688 64.9917 52.8688 64.4652C52.8688 63.9246 53.0443 63.5139 53.3953 63.2331C53.7534 62.9523 54.1675 62.8119 54.6379 62.8119C55.361 62.8119 55.9085 63.0296 56.2806 63.4648V62.7066C56.2806 62.4118 56.1718 62.1801 55.9542 62.0116C55.7365 61.8432 55.4487 61.7589 55.0907 61.7589C54.5221 61.7589 54.0201 61.973 53.5849 62.4013L53.1321 61.6325C53.7077 61.085 54.4203 60.8112 55.2697 60.8112C55.8945 60.8112 56.4034 60.9586 56.7966 61.2535C57.1897 61.5483 57.3863 62.0151 57.3863 62.654V66.0236ZM55.0696 65.3918C55.6242 65.3918 56.0279 65.2163 56.2806 64.8653V64.0966C56.0279 63.7456 55.6242 63.5701 55.0696 63.5701C54.7537 63.5701 54.494 63.6543 54.2904 63.8228C54.0868 63.9913 53.985 64.2124 53.985 64.4862C53.985 64.76 54.0868 64.9811 54.2904 65.1496C54.494 65.3111 54.7537 65.3918 55.0696 65.3918Z" fill="black"/>
<path d="M61.347 66.0236H60.1571L58.0827 60.9376H59.262L60.7468 64.7495L62.2316 60.9376H63.4215L61.347 66.0236Z" fill="black"/>
<path d="M66.4639 66.15C65.6917 66.15 65.0529 65.9043 64.5475 65.4129C64.049 64.9145 63.7998 64.2686 63.7998 63.4753C63.7998 62.7312 64.042 62.1029 64.5264 61.5904C65.0178 61.0709 65.6356 60.8112 66.3797 60.8112C67.1309 60.8112 67.7346 61.0709 68.1909 61.5904C68.6542 62.1099 68.8859 62.7733 68.8859 63.5806V63.8439H64.9581C65.0003 64.244 65.1652 64.5775 65.453 64.8443C65.7409 65.111 66.1165 65.2444 66.5798 65.2444C66.8395 65.2444 67.0993 65.1953 67.359 65.097C67.6258 64.9987 67.8469 64.8618 68.0224 64.6863L68.5279 65.4129C68.0154 65.9043 67.3274 66.15 66.4639 66.15ZM67.8118 63.0647C67.7978 62.7136 67.6679 62.4013 67.4222 62.1275C67.1835 61.8537 66.836 61.7168 66.3797 61.7168C65.9445 61.7168 65.604 61.8537 65.3583 62.1275C65.1126 62.3942 64.9757 62.7066 64.9476 63.0647H67.8118Z" fill="black"/>
<path d="M71.0829 66.0236H69.9772V60.9376H71.0829V61.6852C71.2795 61.4325 71.5252 61.2254 71.82 61.0639C72.1149 60.9025 72.4203 60.8217 72.7362 60.8217V61.9169C72.6379 61.8958 72.522 61.8853 72.3887 61.8853C72.157 61.8853 71.9078 61.9555 71.641 62.0959C71.3813 62.2293 71.1952 62.3837 71.0829 62.5592V66.0236Z" fill="black"/>
</svg>
