<svg width="80" height="80" viewBox="0 0 80 80" fill="none" xmlns="http://www.w3.org/2000/svg">
<rect width="80" height="80" fill="white"/>
<g clip-path="url(#clip0)">
<path d="M53.3442 46C54.2585 46 54.9998 45.2586 54.9998 44.3443V17.6557C54.9998 16.7411 54.2584 16 53.3442 16H26.6557C25.7411 16 25 16.7412 25 17.6557V44.3442C25 45.2586 25.7411 45.9999 26.6557 45.9999H53.3442V46Z" fill="#485A96"/>
<path d="M45.7004 46V34.3824H49.6L50.1838 29.8548H45.7003V26.9641C45.7003 25.6532 46.0643 24.76 47.9442 24.76L50.3416 24.7588V20.7094C49.927 20.6543 48.5037 20.531 46.8481 20.531C43.3913 20.531 41.0248 22.6409 41.0248 26.5158V29.8548H37.1152V34.3824H41.0248V45.9999H45.7004V46Z" fill="white"/>
</g>
<path d="M41.0116 59.8569C40.5945 59.8569 40.2937 59.9937 39.9888 60.1331V63.2868C40.2809 63.3146 40.4483 63.3146 40.7254 63.3146C41.7268 63.3146 41.864 62.856 41.864 62.2158V60.7095C41.864 60.2367 41.7071 59.8569 41.0116 59.8569V59.8569ZM34.3613 59.6848C33.6666 59.6848 33.508 60.0662 33.508 60.5386V60.804H35.2137V60.5386C35.2137 60.0662 35.0552 59.6848 34.3613 59.6848ZM21.4784 62.9674C21.4784 63.3411 21.6547 63.5351 22.0439 63.5351C22.4613 63.5351 22.7085 63.399 23.0132 63.2592V62.5111H22.1005C21.6683 62.5111 21.4784 62.5916 21.4784 62.9674ZM47.4807 59.8569C46.7848 59.8569 46.5437 60.2367 46.5437 60.7095V62.4351C46.5437 62.9091 46.7848 63.2901 47.4807 63.2901C48.1748 63.2901 48.4178 62.9091 48.4178 62.4351V60.7095C48.4175 60.2367 48.1746 59.8569 47.4807 59.8569V59.8569ZM18.0679 64.9023H16.0222V59.9507H15V58.2445H16.0224V57.2197C16.0224 55.8276 16.5993 55 18.2391 55H19.6043V56.7067H18.751C18.1126 56.7067 18.0705 56.9452 18.0705 57.3902L18.0679 58.2442H19.6137L19.4329 59.9504H18.0679V64.9023V64.9023ZM25.0594 64.9151H23.3544L23.2807 64.4839C22.5022 64.9151 21.8074 64.985 21.3491 64.985C20.0987 64.985 19.4331 64.1497 19.4331 62.9945C19.4331 61.6316 20.2098 61.1452 21.5991 61.1452H23.0132V60.8505C23.0132 60.1548 22.9334 59.9507 21.8636 59.9507H20.1144L20.2853 58.2445H22.1973C24.5447 58.2445 25.0594 58.986 25.0594 60.8643V64.9151V64.9151ZM30.8573 60.0758C29.7963 59.8938 29.4916 59.8538 28.9811 59.8538C28.0642 59.8538 27.7871 60.0561 27.7871 60.8349V62.3079C27.7871 63.0866 28.0642 63.2898 28.9811 63.2898C29.4916 63.2898 29.7963 63.2491 30.8573 63.0665V64.7308C29.928 64.9392 29.3225 64.9939 28.8109 64.9939C26.6145 64.9939 25.7415 63.8389 25.7415 62.1704V60.9752C25.7415 59.3052 26.6145 58.1481 28.8109 58.1481C29.3225 58.1481 29.928 58.2031 30.8573 58.4124V60.0758V60.0758ZM37.2592 62.1704H33.5078V62.3079C33.5078 63.0866 33.7851 63.2898 34.7018 63.2898C35.5259 63.2898 36.029 63.2491 37.0881 63.0665V64.7308C36.0666 64.9392 35.5344 64.9939 34.5323 64.9939C32.3357 64.9939 31.4623 63.8389 31.4623 62.1704V60.8038C31.4623 59.3438 32.1103 58.1481 34.3611 58.1481C36.6119 58.1481 37.2592 59.33 37.2592 60.8038V62.1704V62.1704ZM43.9093 62.202C43.9093 63.8146 43.4484 64.9909 40.6562 64.9909C39.6478 64.9909 39.0564 64.9023 37.9435 64.7311V55.5126L39.9885 55.1714V58.396C40.4305 58.2318 41.0025 58.1484 41.5231 58.1484C43.5684 58.1484 43.9091 59.0653 43.9091 60.5388V62.202H43.9093ZM50.4649 62.237C50.4649 63.6282 49.8906 64.9776 47.4875 64.9776C45.0833 64.9776 44.4982 63.6282 44.4982 62.237V60.8938C44.4982 59.5019 45.0833 58.1523 47.4875 58.1523C49.8906 58.1523 50.4649 59.5019 50.4649 60.8938V62.237ZM57.016 62.237C57.016 63.6282 56.441 64.9776 54.0384 64.9776C51.6342 64.9776 51.0491 63.6282 51.0491 62.237V60.8938C51.0491 59.5019 51.6342 58.1523 54.0384 58.1523C56.441 58.1523 57.016 59.5019 57.016 60.8938V62.237ZM63.7391 64.9023H61.5224L59.6476 61.7726V64.9023H57.6018V55.5124L59.6476 55.1712V61.216L61.5224 58.2445H63.7391L61.6924 61.4873L63.7391 64.9023V64.9023ZM54.0314 59.8569C53.3366 59.8569 53.0955 60.2367 53.0955 60.7095V62.4351C53.0955 62.9091 53.3366 63.2901 54.0314 63.2901C54.7252 63.2901 54.9708 62.9091 54.9708 62.4351V60.7095C54.9708 60.2367 54.7252 59.8569 54.0314 59.8569ZM64.9067 63.7344C65.2512 63.7344 65.5255 64.0152 65.5255 64.366C65.5255 64.7222 65.2509 65 64.9041 65C64.559 65 64.279 64.7222 64.279 64.366C64.279 64.0152 64.559 63.7344 64.9041 63.7344H64.9067V63.7344ZM64.9041 63.8326C64.6265 63.8326 64.3995 64.0714 64.3995 64.366C64.3995 64.6661 64.6268 64.9018 64.9067 64.9018C65.1869 64.9046 65.4106 64.6661 65.4106 64.3688C65.4106 64.0716 65.1869 63.8326 64.9067 63.8326H64.9041V63.8326ZM64.7865 64.7336H64.6742V64.0288C64.7332 64.0206 64.7893 64.0124 64.8735 64.0124C64.9801 64.0124 65.0498 64.0349 65.0926 64.0655C65.134 64.0966 65.1562 64.1441 65.1562 64.2112C65.1562 64.3043 65.0949 64.3602 65.0194 64.3829V64.3882C65.0809 64.3997 65.1228 64.4554 65.137 64.559C65.1534 64.6686 65.1705 64.7105 65.1815 64.7334H65.0638C65.0472 64.7105 65.0302 64.6462 65.0161 64.5533C64.9998 64.4638 64.9544 64.4301 64.8646 64.4301H64.7867V64.7336H64.7865ZM64.7865 64.3436H64.8679C64.96 64.3436 65.0384 64.3097 65.0384 64.2224C65.0384 64.1607 64.9939 64.0992 64.8679 64.0992C64.8312 64.0992 64.8057 64.102 64.7865 64.1046V64.3436Z" fill="#3B5998"/>
<defs>
<clipPath id="clip0">
<rect x="25" y="16" width="30" height="30" fill="white"/>
</clipPath>
</defs>
</svg>
