<svg width="80" height="80" viewBox="0 0 80 80" fill="none" xmlns="http://www.w3.org/2000/svg">
<rect width="80" height="80" fill="white"/>
<path d="M35.0125 45C37.7794 45 40.0249 42.7544 40.0249 39.9876V34.9751H35.0125C32.2456 34.9751 30 37.2207 30 39.9876C30 42.7544 32.2456 45 35.0125 45Z" fill="#0ACF83"/>
<path d="M30 30C30 27.2537 32.2456 25.0249 35.0125 25.0249H40.0249V34.975H35.0125C32.2456 34.975 30 32.7462 30 30Z" fill="#A259FF"/>
<path d="M30 20.0125C30 17.2456 32.2456 15 35.0125 15H40.0249V25.0249H35.0125C32.2456 25.0249 30 22.7794 30 20.0125Z" fill="#F24E1E"/>
<path d="M40.0254 15H45.0379C47.8047 15 50.0503 17.2456 50.0503 20.0125C50.0503 22.7794 47.8047 25.0249 45.0379 25.0249H40.0254V15Z" fill="#FF7262"/>
<path d="M50.0503 30C50.0503 32.7462 47.8047 34.975 45.0379 34.975C42.271 34.975 40.0254 32.7462 40.0254 30C40.0254 27.2537 42.271 25.0249 45.0379 25.0249C47.8047 25.0249 50.0503 27.2537 50.0503 30Z" fill="#1ABCFE"/>
<path d="M26.1936 56.1906V55.0125C24.188 54.8722 23.122 55.9241 23.122 57.7895V57.9999H22V59.178H23.122V65.0126H24.3422V59.178H26.1936V57.9999H24.3422V57.7895C24.3422 56.5693 24.9734 56.0924 26.1936 56.1906Z" fill="#050505"/>
<path d="M27.7398 56.7236C28.1886 56.7236 28.5533 56.3589 28.5533 55.9101C28.5533 55.4613 28.1886 55.0826 27.7398 55.0826C27.277 55.0826 26.9123 55.4613 26.9123 55.9101C26.9123 56.3589 27.277 56.7236 27.7398 56.7236ZM27.1227 65.0126H28.3429V57.9999H27.1227V65.0126Z" fill="#050505"/>
<path d="M36.025 57.9999V59.2061C35.464 58.3505 34.5663 57.8175 33.3882 57.8175C31.3966 57.8175 29.8117 59.4305 29.8117 61.4642C29.8117 63.5119 31.3966 65.1248 33.3882 65.1248C34.5663 65.1248 35.464 64.5778 36.025 63.7222V64.7181C36.025 66.0364 35.1414 66.8639 33.6827 66.8639C32.3082 66.8639 31.7192 66.345 31.3966 65.6858L30.3307 66.2889C30.9057 67.3969 32.0838 68 33.6547 68C35.478 68 37.2312 66.906 37.2312 64.7181V57.9999H36.025ZM33.5285 63.9607C32.1119 63.9607 31.0319 62.8807 31.0319 61.4642C31.0319 60.0616 32.1119 58.9817 33.5285 58.9817C34.945 58.9817 36.025 60.0616 36.025 61.4642C36.025 62.8807 34.945 63.9607 33.5285 63.9607Z" fill="#050505"/>
<path d="M46.6536 57.8175C45.742 57.8175 44.9425 58.2103 44.4516 59.0097C44.0449 58.2523 43.3436 57.8175 42.3899 57.8175C41.5344 57.8175 40.805 58.1542 40.3001 58.9396V57.9999H39.0799V65.0126H40.3001V61.1135C40.3001 59.5988 41.1557 58.9817 42.0954 58.9817C43.007 58.9817 43.5821 59.5847 43.5821 60.6928V65.0126H44.8023V61.1135C44.8023 59.5988 45.5456 58.9817 46.5274 58.9817C47.4531 58.9817 48.0702 59.5847 48.0702 60.6928V65.0126H49.2904V60.6507C49.2904 58.8975 48.2105 57.8175 46.6536 57.8175Z" fill="#050505"/>
<path d="M56.7889 57.9999V59.2061C56.2278 58.3505 55.3302 57.8175 54.1381 57.8175C52.1885 57.8175 50.5896 59.4305 50.5896 61.5062C50.5896 63.582 52.1885 65.1949 54.1381 65.1949C55.3302 65.1949 56.2278 64.6619 56.7889 63.8064V65.0126H58.0091V57.9999H56.7889ZM54.2923 64.0168C52.8898 64.0168 51.8098 62.9368 51.8098 61.5062C51.8098 60.0756 52.8898 58.9957 54.2923 58.9957C55.7089 58.9957 56.7889 60.0756 56.7889 61.5062C56.7889 62.9368 55.7089 64.0168 54.2923 64.0168Z" fill="#050505"/>
</svg>
