<svg width="80" height="80" viewBox="0 0 80 80" fill="none" xmlns="http://www.w3.org/2000/svg">
<rect width="80" height="80" fill="white"/>
<g clip-path="url(#clip0)">
<path d="M45.3327 14L55.9993 46H48.1993C47.066 46 46.066 45.5333 45.3327 44.7667C44.9327 44.3667 44.6327 43.8667 44.4327 43.3333L34.666 14H45.3327Z" fill="#0F9D58"/>
<path d="M45.3333 14L40 30L56 46L45.3333 14Z" fill="url(#paint0_linear)"/>
<path opacity="0.2" d="M24 46.0002L24.0667 45.8335L24 46.0002Z" fill="#263238"/>
<path d="M34.6667 14L24 46H31.8C32.9333 46 33.9333 45.5333 34.6667 44.7667C35.0667 44.3667 35.3667 43.8667 35.5667 43.3333L45.3333 14H34.6667Z" fill="#4285F5"/>
<path d="M45.2333 14.1667L45.3333 14H34.6667L24 46L24.1 45.8333L34.6667 14.1667H45.2333Z" fill="white" fill-opacity="0.2"/>
<path d="M35.5667 43.1667C35.5667 43.2 35.5667 43.2 35.5667 43.1667C35.3667 43.7 35.0667 44.2 34.6667 44.6C33.9333 45.3333 32.9333 45.8333 31.8 45.8333H24.1L24 46H31.8C32.9333 46 33.9333 45.5333 34.6667 44.7667C35.0667 44.3667 35.3667 43.8667 35.5667 43.3333L45.3333 14L45.2333 14.1667L35.5667 43.1667Z" fill="#263238" fill-opacity="0.2"/>
<path d="M35.5667 43.3667C35.3667 43.9 35.0667 44.4 34.6667 44.8C33.9333 45.5333 32.9333 46.0333 31.8 46.0333L24.0667 46L24 46.1667H31.8C32.9333 46.1667 33.9333 45.7 34.6667 44.9333C35.0667 44.5333 35.3667 44.0333 35.5667 43.5L45.3667 14.0667L45.3333 14L35.5667 43.3667Z" fill="#263238" fill-opacity="0.1"/>
<path d="M55.9337 45.8333L45.3337 14V14.1667L55.9004 45.8333H48.1671C47.0337 45.8333 46.0337 45.3667 45.3004 44.6C44.9004 44.2 44.6004 43.7 44.4004 43.1667L44.4671 43.3333C44.6671 43.8667 44.9671 44.3667 45.3671 44.7667C46.1004 45.5 47.1004 46 48.2337 46H56.0004L55.9337 45.8333Z" fill="#263238" fill-opacity="0.2"/>
<g opacity="0.1">
<path opacity="0.1" d="M45.3333 14H34.6667L24 46H31.8C32.9333 46 33.9333 45.5333 34.6667 44.7667C35.0667 44.3667 35.3667 43.8667 35.5667 43.3333L40 30L44.4333 43.3333C44.6333 43.8667 44.9333 44.3667 45.3333 44.7667C46.0667 45.5 47.0667 46 48.2 46H56L45.3333 14Z" fill="url(#paint1_radial)"/>
</g>
</g>
<path d="M25.2028 59.6968C26.5957 59.6968 27.7124 59.0927 28.505 58.1739V55.0275H24.7105V56.3238H27.1V57.6327C26.7398 57.9851 26.0193 58.3879 25.2028 58.3879C23.6177 58.3879 22.441 57.1041 22.441 55.3421C22.441 53.5801 23.6177 52.3089 25.2028 52.3089C26.1034 52.3089 26.8599 52.7998 27.2802 53.4291L28.4329 52.7494C27.7845 51.7803 26.7638 51 25.2028 51C22.8852 51 21 52.7117 21 55.3421C21 57.9725 22.8852 59.6968 25.2028 59.6968Z" fill="#5F6368"/>
<path d="M32.5492 59.6842C34.4104 59.6842 35.5392 58.2368 35.5392 56.4874C35.5392 54.7506 34.4104 53.3032 32.5492 53.3032C30.712 53.3032 29.5712 54.7506 29.5712 56.4874C29.5712 58.2368 30.712 59.6842 32.5492 59.6842ZM32.5492 58.5137C31.4805 58.5137 30.8801 57.5698 30.8801 56.4874C30.8801 55.4176 31.4805 54.4737 32.5492 54.4737C33.6299 54.4737 34.2303 55.4176 34.2303 56.4874C34.2303 57.5698 33.6299 58.5137 32.5492 58.5137Z" fill="#5F6368"/>
<path d="M39.4327 59.6842C41.2939 59.6842 42.4227 58.2368 42.4227 56.4874C42.4227 54.7506 41.2939 53.3032 39.4327 53.3032C37.5955 53.3032 36.4547 54.7506 36.4547 56.4874C36.4547 58.2368 37.5955 59.6842 39.4327 59.6842ZM39.4327 58.5137C38.364 58.5137 37.7636 57.5698 37.7636 56.4874C37.7636 55.4176 38.364 54.4737 39.4327 54.4737C40.5134 54.4737 41.1138 55.4176 41.1138 56.4874C41.1138 57.5698 40.5134 58.5137 39.4327 58.5137Z" fill="#5F6368"/>
<path d="M46.052 62C47.4809 62 49.0299 61.4085 49.0299 59.2185V53.4542H47.7691V54.2975C47.3008 53.6556 46.6404 53.3032 45.9079 53.3032C44.4189 53.3032 43.3382 54.4611 43.3382 56.4245C43.3382 58.4256 44.4309 59.5458 45.9079 59.5458C46.6644 59.5458 47.3248 59.143 47.7691 58.5389V59.2689C47.7691 60.5149 46.8805 60.9176 46.052 60.9176C45.2835 60.9176 44.6831 60.7037 44.2147 60.1373L43.6264 61.0938C44.3348 61.7735 45.0673 62 46.052 62ZM46.2801 58.3753C45.2835 58.3753 44.647 57.595 44.647 56.4245C44.647 55.254 45.2835 54.4737 46.2801 54.4737C46.8685 54.4737 47.4929 54.8387 47.7691 55.2918V57.5572C47.4929 58.0103 46.8685 58.3753 46.2801 58.3753Z" fill="#5F6368"/>
<path d="M51.9248 59.5332V51.1384H50.664V59.5332H51.9248Z" fill="#5F6368"/>
<path d="M56.2382 59.6842C57.1628 59.6842 58.0153 59.3822 58.5917 58.8032L58.0153 57.9348C57.6071 58.3627 56.9346 58.6018 56.3703 58.6018C55.2775 58.6018 54.6171 57.8467 54.521 56.9279H59V56.6133C59 54.7002 57.8833 53.3032 56.1421 53.3032C54.425 53.3032 53.2002 54.7254 53.2002 56.4874C53.2002 58.413 54.497 59.6842 56.2382 59.6842ZM57.7752 55.9966H54.509C54.5691 55.254 55.0614 54.3856 56.1421 54.3856C57.2829 54.3856 57.7512 55.2792 57.7752 55.9966Z" fill="#5F6368"/>
<path d="M27.8142 68.894L25.3704 63H24.4347L22 68.894H22.863L23.399 67.5862H26.4152L26.9512 68.894H27.8142ZM26.188 66.9323H23.6171L24.9071 63.7599L26.188 66.9323Z" fill="#5F6368"/>
<path d="M32.4402 68.894V63H31.7588V65.271C31.4045 64.8027 30.8685 64.5199 30.278 64.5199C29.1242 64.5199 28.3248 65.4035 28.3248 66.7644C28.3248 68.1517 29.1333 69 30.278 69C30.8958 69 31.4318 68.6907 31.7588 68.2577V68.894H32.4402ZM30.4415 68.408C29.5603 68.408 29.0334 67.7099 29.0334 66.7644C29.0334 65.8189 29.5603 65.1119 30.4415 65.1119C30.9866 65.1119 31.5135 65.43 31.7588 65.8012V67.7364C31.5135 68.1075 30.9866 68.408 30.4415 68.408Z" fill="#5F6368"/>
<path d="M39.2827 68.894L41.0088 63H40.173L38.8376 67.9131L37.4476 63H36.8207L35.4308 67.9131L34.0863 63H33.2505L34.9766 68.894H35.7942L37.1296 64.1399L38.4651 68.894H39.2827Z" fill="#5F6368"/>
<path d="M43.3778 69C44.7133 69 45.5491 67.9926 45.5491 66.7555C45.5491 65.5184 44.7133 64.5199 43.3778 64.5199C42.0424 64.5199 41.2066 65.5184 41.2066 66.7555C41.2066 67.9926 42.0424 69 43.3778 69ZM43.3778 68.408C42.4421 68.408 41.9152 67.6303 41.9152 66.7555C41.9152 65.8895 42.4421 65.1119 43.3778 65.1119C44.3136 65.1119 44.8314 65.8895 44.8314 66.7555C44.8314 67.6303 44.3136 68.408 43.3778 68.408Z" fill="#5F6368"/>
<path d="M47.3412 68.894V65.8719C47.541 65.5272 48.1134 65.1915 48.5313 65.1915C48.6403 65.1915 48.722 65.2003 48.8038 65.218V64.5376C48.2042 64.5376 47.6955 64.8645 47.3412 65.3152V64.6259H46.6598V68.894H47.3412Z" fill="#5F6368"/>
<path d="M53.5195 68.894V63H52.8381V65.271C52.4838 64.8027 51.9478 64.5199 51.3573 64.5199C50.2036 64.5199 49.4041 65.4035 49.4041 66.7644C49.4041 68.1517 50.2126 69 51.3573 69C51.9751 69 52.5111 68.6907 52.8381 68.2577V68.894H53.5195ZM51.5208 68.408C50.6396 68.408 50.1127 67.7099 50.1127 66.7644C50.1127 65.8189 50.6396 65.1119 51.5208 65.1119C52.0659 65.1119 52.5928 65.43 52.8381 65.8012V67.7364C52.5928 68.1075 52.0659 68.408 51.5208 68.408Z" fill="#5F6368"/>
<path d="M56.2739 69C57.4095 69 58 68.4256 58 67.7099C58 66.0486 55.2837 66.6672 55.2837 65.7305C55.2837 65.3505 55.6561 65.0589 56.2557 65.0589C56.819 65.0589 57.3005 65.2887 57.5639 65.5979L57.8819 65.1384C57.5276 64.7938 57.0007 64.5199 56.2557 64.5199C55.211 64.5199 54.6205 65.0854 54.6205 65.7482C54.6205 67.3299 57.3368 66.6937 57.3368 67.7275C57.3368 68.1517 56.9734 68.461 56.3012 68.461C55.7016 68.461 55.1474 68.1782 54.8567 67.8513L54.5024 68.3284C54.9475 68.7879 55.5562 69 56.2739 69Z" fill="#5F6368"/>
<defs>
<linearGradient id="paint0_linear" x1="41.073" y1="26.8603" x2="59.8167" y2="32.9947" gradientUnits="userSpaceOnUse">
<stop stop-color="#263238" stop-opacity="0.2"/>
<stop offset="1" stop-color="#263238" stop-opacity="0"/>
</linearGradient>
<radialGradient id="paint1_radial" cx="0" cy="0" r="1" gradientUnits="userSpaceOnUse" gradientTransform="translate(34.607 14.0097) scale(38.3983)">
<stop stop-color="white"/>
<stop offset="1" stop-color="white" stop-opacity="0"/>
</radialGradient>
<clipPath id="clip0">
<rect x="24" y="14" width="32" height="32" fill="white"/>
</clipPath>
</defs>
</svg>
