<svg width="80" height="80" viewBox="0 0 80 80" fill="none" xmlns="http://www.w3.org/2000/svg">
<rect width="80" height="80" fill="white"/>
<path d="M32.6072 45.8939C30.8231 45.8128 29.8539 45.5159 29.2093 45.2644C28.3551 44.9319 27.7462 44.536 27.1051 43.8958C26.464 43.2556 26.0673 42.6467 25.7365 41.7925C25.485 41.1479 25.1881 40.1787 25.107 38.3946C25.0178 36.466 25 35.8874 25 31.0013C25 26.1153 25.0196 25.5376 25.1061 23.6072C25.1872 21.8231 25.4859 20.8557 25.7356 20.2093C26.0681 19.3551 26.4649 18.7462 27.1042 18.1042C27.7444 17.464 28.3533 17.0664 29.2084 16.7356C29.853 16.4841 30.8222 16.1872 32.6063 16.1061C34.5358 16.0178 35.1153 16 39.9996 16C44.8856 16 45.4633 16.0196 47.3937 16.1061C49.1778 16.1872 50.1452 16.4859 50.7916 16.7356C51.6458 17.0664 52.2547 17.464 52.8958 18.1042C53.5369 18.7444 53.9319 19.3542 54.2644 20.2084C54.5159 20.853 54.8128 21.8222 54.8939 23.6063C54.9822 25.5367 55 26.1144 55 31.0004C55 35.8847 54.9822 36.4642 54.8939 38.3946C54.8128 40.1787 54.5141 41.1479 54.2644 41.7925C53.9319 42.6467 53.536 43.2556 52.8958 43.8958C52.2556 44.536 51.6458 44.9319 50.7916 45.2644C50.147 45.5159 49.1778 45.8128 47.3937 45.8939C45.4651 45.9822 44.8856 46 39.9996 46C35.1153 46 34.5358 45.9831 32.6072 45.8939" fill="url(#paint0_radial)"/>
<path d="M32.6072 45.8939C30.8231 45.8128 29.8539 45.5159 29.2093 45.2644C28.3551 44.9319 27.7462 44.536 27.1051 43.8958C26.464 43.2556 26.0673 42.6467 25.7365 41.7925C25.485 41.1479 25.1881 40.1787 25.107 38.3946C25.0178 36.466 25 35.8874 25 31.0013C25 26.1153 25.0196 25.5376 25.1061 23.6072C25.1872 21.8231 25.4859 20.8557 25.7356 20.2093C26.0681 19.3551 26.4649 18.7462 27.1042 18.1042C27.7444 17.464 28.3533 17.0664 29.2084 16.7356C29.853 16.4841 30.8222 16.1872 32.6063 16.1061C34.5358 16.0178 35.1153 16 39.9996 16C44.8856 16 45.4633 16.0196 47.3937 16.1061C49.1778 16.1872 50.1452 16.4859 50.7916 16.7356C51.6458 17.0664 52.2547 17.464 52.8958 18.1042C53.5369 18.7444 53.9319 19.3542 54.2644 20.2084C54.5159 20.853 54.8128 21.8222 54.8939 23.6063C54.9822 25.5367 55 26.1144 55 31.0004C55 35.8847 54.9822 36.4642 54.8939 38.3946C54.8128 40.1787 54.5141 41.1479 54.2644 41.7925C53.9319 42.6467 53.536 43.2556 52.8958 43.8958C52.2556 44.536 51.6458 44.9319 50.7916 45.2644C50.147 45.5159 49.1778 45.8128 47.3937 45.8939C45.4651 45.9822 44.8856 46 39.9996 46C35.1153 46 34.5358 45.9831 32.6072 45.8939" fill="url(#paint1_radial)"/>
<path d="M36.3174 31.0641C36.3174 29.0124 37.9802 27.3487 40.0318 27.3487C42.0835 27.3487 43.7472 29.0124 43.7472 31.0641C43.7472 33.1158 42.0835 34.7794 40.0318 34.7794C37.9802 34.7794 36.3174 33.1158 36.3174 31.0641V31.0641ZM34.309 31.0641C34.309 34.2248 36.8711 36.787 40.0318 36.787C43.1926 36.787 45.7547 34.2248 45.7547 31.0641C45.7547 27.9033 43.1926 25.3412 40.0318 25.3412C36.8711 25.3412 34.309 27.9031 34.309 31.0641H34.309ZM44.644 25.1143C44.6438 25.3788 44.7222 25.6374 44.869 25.8574C45.0159 26.0774 45.2247 26.2489 45.4691 26.3502C45.7134 26.4515 45.9823 26.4781 46.2418 26.4266C46.5012 26.3751 46.7396 26.2478 46.9267 26.0609C47.1138 25.8739 47.2413 25.6357 47.293 25.3762C47.3447 25.1168 47.3183 24.8479 47.2172 24.6035C47.1161 24.3591 46.9447 24.1501 46.7248 24.0031C46.505 23.856 46.2464 23.7775 45.9819 23.7774H45.9814C45.6268 23.7776 45.2868 23.9184 45.036 24.1691C44.7853 24.4198 44.6443 24.7597 44.644 25.1143V25.1143ZM35.5292 40.136C34.4426 40.0865 33.852 39.9055 33.4595 39.7526C32.9392 39.5501 32.5679 39.3088 32.1776 38.919C31.7872 38.5292 31.5456 38.1583 31.3439 37.6379C31.1909 37.2456 31.0099 36.6548 30.9605 35.5682C30.9065 34.3934 30.8957 34.0405 30.8957 31.0642C30.8957 28.088 30.9074 27.736 30.9605 26.5603C31.01 25.4737 31.1923 24.8841 31.3439 24.4906C31.5465 23.9702 31.7877 23.599 32.1776 23.2086C32.5674 22.8183 32.9383 22.5767 33.4595 22.375C33.8518 22.222 34.4426 22.041 35.5292 21.9916C36.704 21.9376 37.0569 21.9268 40.0318 21.9268C43.0068 21.9268 43.36 21.9383 44.5358 21.9918C45.6224 22.0412 46.212 22.2236 46.6055 22.3752C47.1258 22.5768 47.4971 22.819 47.8874 23.2088C48.2778 23.5986 48.5185 23.9704 48.7211 24.4908C48.8741 24.8831 49.0551 25.4739 49.1045 26.5605C49.1585 27.7362 49.1693 28.0881 49.1693 31.0644C49.1693 34.0407 49.1585 34.3926 49.1045 35.5684C49.055 36.655 48.8731 37.2456 48.7211 37.6381C48.5185 38.1584 48.2773 38.5297 47.8874 38.9192C47.4976 39.3086 47.1258 39.5502 46.6055 39.7528C46.2132 39.9058 45.6224 40.0868 44.5358 40.1362C43.361 40.1902 43.0081 40.201 40.0318 40.201C37.0556 40.201 36.7036 40.1902 35.5292 40.1362V40.136ZM35.4369 19.9864C34.2505 20.0405 33.4397 20.2286 32.7317 20.5041C31.9989 20.7886 31.3777 21.1703 30.7574 21.7896C30.1371 22.4089 29.7564 23.0302 29.4719 23.7639C29.1964 24.4724 29.0082 25.2827 28.9542 26.4692C28.8993 27.6575 28.8867 28.0374 28.8867 31.0641C28.8867 34.0907 28.8993 34.4706 28.9542 35.659C29.0082 36.8455 29.1964 37.6557 29.4719 38.3642C29.7564 39.097 30.1372 39.7195 30.7574 40.3385C31.3776 40.9576 31.998 41.3387 32.7317 41.624C33.4411 41.8995 34.2505 42.0877 35.4369 42.1417C36.6259 42.1957 37.0052 42.2092 40.0318 42.2092C43.0585 42.2092 43.4384 42.1966 44.6267 42.1417C45.8133 42.0877 46.6235 41.8995 47.332 41.624C48.0648 41.3387 48.686 40.9578 49.3063 40.3385C49.9266 39.7192 50.3065 39.097 50.5918 38.3642C50.8673 37.6557 51.0563 36.8454 51.1095 35.659C51.1635 34.4698 51.1761 34.0907 51.1761 31.0641C51.1761 28.0374 51.1635 27.6575 51.1095 26.4692C51.0554 25.2826 50.8673 24.472 50.5918 23.7639C50.3065 23.0311 49.9256 22.4099 49.3063 21.7896C48.687 21.1693 48.0648 20.7886 47.3329 20.5041C46.6235 20.2286 45.8132 20.0396 44.6276 19.9864C43.4391 19.9321 43.0594 19.9189 40.0332 19.9189C37.007 19.9189 36.6263 19.9315 35.4374 19.9864" fill="white"/>
<g clip-path="url(#clip0)">
<path fill-rule="evenodd" clip-rule="evenodd" d="M43.1735 69.3788C43.067 69.3851 42.9605 69.3685 42.861 69.33C42.7616 69.2915 42.6716 69.2321 42.5971 69.1557C41.8274 68.3786 43.2032 66.6942 43.7721 66.1327C43.8808 66.0225 43.9826 65.9058 44.077 65.7832C44.165 65.646 44.2956 65.5415 44.4488 65.4857C44.471 66.3013 44.4237 67.1174 44.3075 67.925C44.2034 68.5534 43.9357 69.3788 43.192 69.3788H43.1735ZM56.024 61.2208C56.0364 62.025 55.8184 62.8159 55.3956 63.5001C55.2981 63.6563 55.1528 63.7769 54.9813 63.8439C54.8098 63.9109 54.6213 63.9207 54.4437 63.872C53.3096 63.37 53.3952 58.6663 54.9903 58.6663C56.1058 58.6663 56.024 60.4288 56.024 61.1985V61.2208ZM41.8944 61.641C41.8944 58.1309 44.2369 57.8446 44.2369 60.2354C44.2369 61.2952 44.2964 61.7786 43.9506 62.8085C43.3891 64.4892 41.8944 64.4297 41.8944 61.641V61.641ZM35.2013 61.548C35.1951 60.9185 35.2841 60.2917 35.4653 59.6888C35.6215 59.2389 35.945 58.6775 36.5139 58.6775C38.0384 58.6775 37.767 63.106 36.5623 63.7865C35.4616 64.4111 35.2013 62.552 35.2013 61.548V61.548ZM31.8734 56.2977C31.8734 55.9259 31.9218 55.7028 31.9218 55.3607L31.9664 54.42C31.5355 54.1358 31.0285 53.9893 30.5125 53.9998C30.3973 54.1708 30.3712 54.1225 30.334 54.3716L30.2783 56.2308L28.6831 56.1862C28.5739 56.3411 28.4969 56.5164 28.4567 56.7016C28.4164 56.8868 28.4138 57.0782 28.4488 57.2645C29.1367 57.4244 30.1853 57.1381 30.1853 57.4504V60.6556C30.1853 61.2654 29.4045 62.8383 28.9657 62.9535C28.9657 62.7156 29.014 62.7416 29.014 62.5334C28.9865 62.2077 28.8889 61.8919 28.7278 61.6075C28.5667 61.3232 28.3459 61.0771 28.0807 60.8862C27.624 60.4895 27.1352 60.1313 26.6194 59.8153C26.6873 59.6708 26.7791 59.5388 26.8909 59.4248C28.0621 57.7962 26.9987 57.1678 25.9018 57.7813C25.7001 57.8923 25.5261 58.0473 25.3925 58.2348C25.259 58.4223 25.1695 58.6374 25.1305 58.8643C25.0916 59.0912 25.1043 59.3239 25.1676 59.5452C25.231 59.7664 25.3434 59.9706 25.4965 60.1425C25.4147 60.2949 25.3366 60.4548 25.2622 60.611L24.5186 61.9273C24.3141 62.2805 23.7749 63.4146 23.2952 63.4146C22.8156 63.4146 23.0349 60.4809 23.061 59.9938C23.061 59.7595 23.1056 58.7146 23.0833 58.6105C22.968 58.09 22.0384 57.4839 21.2464 57.8148C20.3726 58.1866 19.8372 59.5773 19.536 60.4176C19.4468 60.6556 19.3092 61.2691 19.1195 61.4067L19.1642 58.1718C19.1642 57.8855 18.1937 57.588 17.8516 57.7516C17.714 58.0379 17.8256 61.1427 17.807 61.786C17.807 62.0165 17.7623 62.0202 17.7586 62.2508V63.2956C17.7586 63.5187 17.7958 63.5113 17.807 63.7158C17.8256 64.1323 17.807 64.2959 17.9817 64.571C18.0651 64.6766 18.1755 64.7576 18.3012 64.8054C18.4269 64.8532 18.5632 64.866 18.6956 64.8425C19.2125 64.8425 19.2051 64.69 19.2794 64.2029C19.4224 63.3147 19.6528 62.4429 19.9673 61.6001C20.1718 61.0349 21.0159 59.0307 21.6034 58.8745C21.6034 60.0532 21.5104 61.0683 21.5104 62.2508C21.5104 63.1581 21.477 64.8313 22.5404 64.8313C23.7861 64.8313 24.7714 62.816 25.318 61.8864L26.0096 60.6928C26.3662 60.9577 26.6996 61.2525 27.0061 61.574C27.3445 61.9068 27.5596 62.3448 27.6159 62.816C27.6159 63.3217 27.285 63.8757 26.7533 63.7753C26.3591 63.7009 25.7605 63.1134 25.5076 63.1878C25.348 63.2912 25.2142 63.4298 25.1162 63.5928C25.0183 63.7558 24.9588 63.9391 24.9425 64.1285C24.9425 64.7941 27.1511 65.0879 28.2592 64.5338C28.6429 64.3455 28.9816 64.0766 29.252 63.7456C29.5495 63.3737 30.1109 62.6598 30.1481 62.2062C30.3229 62.3326 30.2411 63.2101 30.665 63.9389C31.7619 65.7981 33.4872 64.374 33.807 63.0019C33.9036 63.0725 34.0635 63.7641 34.4763 64.255C34.637 64.4414 34.8371 64.5898 35.0622 64.6895C35.2872 64.7892 35.5316 64.8376 35.7777 64.8313C36.6478 64.8313 37.2278 64.2959 37.6592 63.6637C37.7521 63.5299 37.7112 63.5187 37.8376 63.4221C37.871 63.798 38.0406 64.1487 38.3145 64.4083C38.5885 64.6678 38.9478 64.8183 39.325 64.8313C39.8716 64.8313 40.6859 64.2475 40.7305 63.7158C40.9796 63.7827 40.9499 64.1285 41.3924 64.4595C42.9652 65.6233 44.1923 63.8645 44.341 63.7641C44.341 63.9203 44.341 64.0765 44.341 64.2327C44.341 64.4558 44.4079 64.3777 44.2592 64.5264L42.7979 65.8836C41.991 66.6942 41.3329 67.2408 41.3329 68.4864C41.3329 70.2489 44.4897 70.7806 45.3598 68.386C45.6982 67.4602 45.6945 66.155 45.6945 65.1102C45.6945 64.0653 45.5234 64.3665 46.0663 63.66C46.6905 62.8592 47.2359 62 47.695 61.0944C47.9932 60.557 48.2242 59.9851 48.3828 59.3914C49.595 59.3914 49.6471 59.1013 49.4983 59.8859C49.4612 60.0867 49.4314 60.2354 49.398 60.4437C49.3173 61.0276 49.28 61.6167 49.2864 62.2062C49.2864 64.4558 51.272 65.746 52.3986 64.0988C52.4664 63.9694 52.5557 63.8524 52.6627 63.753C52.7712 64.0546 52.9715 64.3146 53.2353 64.4967C54.124 65.1585 55.3659 64.716 55.9645 63.9203C56.0755 63.7472 56.1998 63.5831 56.3364 63.4295C56.6524 64.7867 57.9613 65.2887 58.7644 64.452L59.2441 63.7084C59.2701 64.0021 59.2441 64.4743 59.4114 64.6194C59.5788 64.7644 60.7947 65.0284 60.8988 64.5822C61.107 63.8199 60.7538 62.723 61.4602 60.6891L61.9957 59.4881H62.137L62.2225 60.901C62.3117 61.7191 62.2225 64.2698 63.3082 64.2698C63.6615 64.2698 64.0519 64.3368 64.0519 63.8534C64.0887 62.5009 64.3762 61.167 64.8997 59.9194C64.9424 59.7226 65.036 59.5406 65.1711 59.3914C65.1274 60.568 65.1709 61.7462 65.3013 62.9164C65.6211 64.8387 67.3501 65.5192 68.1718 64.0802C68.3986 63.6159 68.5253 63.1092 68.5437 62.5929C68.5437 62.1095 68.1495 62.0723 68.0157 62.6301C67.919 63.0279 67.8074 63.9054 67.272 63.9054C66.454 63.9054 66.4763 61.8715 66.4763 61.2803C66.4763 60.7858 66.4763 59.1906 66.5432 58.7667C66.5627 58.6092 66.528 58.4498 66.4449 58.3147C66.3618 58.1795 66.2352 58.0767 66.0858 58.023C65.0782 57.4913 64.8216 57.6512 64.4795 58.4953L64.1077 59.529C63.9961 59.9008 63.8957 60.2243 63.7954 60.6221L63.5722 61.7562C63.4904 61.5653 63.4572 61.3571 63.4756 61.1502L63.3826 59.8822C63.3826 59.343 63.4867 58.4544 63.1409 58.1123C62.8717 57.8748 62.5257 57.7428 62.1667 57.7404C61.7949 57.7404 61.6387 58.0156 61.5086 58.3019L60.9174 59.9157C60.8616 60.0793 60.8281 60.1722 60.7761 60.3358C60.751 60.4701 60.6963 60.5971 60.6162 60.7077V58.0305L60.0919 57.8074C59.6457 57.6995 59.3073 57.5062 59.2292 58.0974C59.1883 58.7313 59.1883 59.3673 59.2292 60.0012C59.2292 61.2505 59.3705 62.3437 58.7942 63.4072C58.4224 64.1137 57.7493 64.2066 57.5523 63.2733C57.3069 62.1206 57.4928 59.2426 57.4928 58.1271C57.2323 57.9553 56.9334 57.8506 56.6227 57.8222C56.1616 57.7442 56.0426 57.9152 56.0426 58.3614C55.9451 58.2689 55.8544 58.1695 55.7712 58.0639C54.3508 56.6324 52.2425 58.3465 52.2425 61.2654V61.9719C52.2425 62.3884 52.3354 62.604 52.3354 63.0019C52.3354 63.4741 51.7331 64.255 51.2199 63.8497C50.8927 63.5968 50.7068 62.7602 50.7068 62.1578C50.7114 61.5335 50.7749 60.911 50.8964 60.2987C51.0638 59.4695 51.6401 58.0677 50.1044 58.2833C49.6287 58.3486 49.157 58.4405 48.6915 58.5585C48.6915 58.2164 48.7807 57.9375 48.6283 57.6847C48.3457 57.2236 47.5871 57.4058 47.2934 57.7256C47.1211 57.9165 47.0188 58.1604 47.0033 58.4172C47.0033 59.0828 47.0963 58.9601 47.4235 59.4509C47.2628 60.1278 47.0219 60.7832 46.7059 61.403C46.5906 61.6298 45.9622 62.9126 45.6871 63.013C45.6871 61.7414 45.7354 60.585 45.7354 59.3542C45.7354 58.3428 45.8953 58.1271 45.4045 57.9524C45.1537 57.8692 44.8915 57.8253 44.6273 57.8222C44.341 57.8743 44.2815 58.0528 44.2815 58.3726C44.1863 58.279 44.0969 58.1796 44.0138 58.0751C42.9987 57.0525 41.6601 57.7033 41.0763 58.8708C40.5409 59.9566 40.4851 60.8452 40.4851 62.076C40.4851 62.5297 40.6041 62.7676 40.4442 63.1915C40.3928 63.3468 40.3162 63.4925 40.2174 63.6228C40.141 63.7633 40.019 63.8734 39.8716 63.9352C39.1279 64.1918 38.9829 62.9387 38.9829 62.2471C38.9829 61.5555 38.916 60.321 38.9829 59.6777C39.0232 59.2526 39.0381 58.8255 39.0275 58.3986C39.0275 57.9524 38.6334 57.9003 38.2838 57.8408C37.7744 57.7516 37.5811 57.7739 37.5811 58.3577C37.4857 58.2642 37.3963 58.1648 37.3134 58.0602C37.2153 57.9694 37.1096 57.8873 36.9973 57.8148C35.6141 56.9001 34.1937 58.3763 33.8739 60.2763C33.7623 60.9531 33.7661 61.8529 33.5541 62.4404C33.398 62.8755 32.9034 63.7493 32.3754 63.7493C31.4756 63.7493 31.8139 59.5736 31.8139 59.0604C31.8139 58.6068 31.8623 58.3428 31.8586 57.8855C31.8586 57.2087 31.8586 57.3723 32.5613 57.3723C33.3756 57.3723 33.8739 57.5582 34.0487 57.0228C34.1157 56.8651 34.1262 56.6891 34.0784 56.5245C33.9594 56.3423 32.2639 56.3758 31.9143 56.294L31.8734 56.2977ZM13.3041 58.2647C13.3041 57.1046 14.1333 55.1041 14.8509 54.9182C14.871 55.1409 14.871 55.3649 14.8509 55.5875C14.7505 56.4241 14.9736 62.5854 14.8174 63.7158C14.784 63.9575 14.8174 64.1918 14.784 64.4372C14.7443 64.8567 14.6544 65.2699 14.5162 65.6679C14.1779 66.7648 15.6726 65.8241 16.1114 64.5896C16.3717 63.8459 16.3977 62.7639 16.3977 61.7823V54.6579C16.3977 54.2638 15.6912 53.9998 15.2748 53.9998C14.4307 53.9998 13.4863 54.974 13.014 55.5875C12.17 56.6658 11.4337 58.6551 12.6087 59.8487C12.9806 60.2206 13.8655 60.7263 13.8655 60.2838C13.8655 60.0867 13.5718 59.7409 13.4937 59.4918C13.3405 59.1019 13.2782 58.6823 13.3115 58.2647H13.3041Z" fill="#181818"/>
</g>
<defs>
<radialGradient id="paint0_radial" cx="0" cy="0" r="1" gradientUnits="userSpaceOnUse" gradientTransform="translate(26.9416 45.3428) scale(38.0889)">
<stop offset="0.09" stop-color="#FA8F21"/>
<stop offset="0.78" stop-color="#D82D7E"/>
</radialGradient>
<radialGradient id="paint1_radial" cx="0" cy="0" r="1" gradientUnits="userSpaceOnUse" gradientTransform="translate(45.78 44.3795) scale(33.5186)">
<stop offset="0.64" stop-color="#8C3AAA" stop-opacity="0"/>
<stop offset="1" stop-color="#8C3AAA"/>
</radialGradient>
<clipPath id="clip0">
<rect x="12" y="55" width="56.5447" height="16" fill="white"/>
</clipPath>
</defs>
</svg>
