<svg width="80" height="80" viewBox="0 0 80 80" fill="none" xmlns="http://www.w3.org/2000/svg">
<rect width="80" height="80" fill="white"/>
<g clip-path="url(#clip0)">
<path d="M35.6253 32.4931C33.5194 35.3047 31.6904 34.6149 30.2199 31.8305C29.5981 32.4636 28.9241 33.0423 28.207 33.5642C26.6548 34.5377 24.9914 33.6255 24.8893 31.7783C24.853 31.0952 24.8893 30.4008 24.8575 29.7064C24.794 29.4613 24.6896 29.2321 24.5467 29.0233C24.3129 29.1413 23.9771 29.2003 23.8636 29.391C23.5958 29.8902 23.3644 30.4099 23.176 30.9432C22.9014 31.6013 22.6586 32.2798 22.3681 32.9197C22.0709 33.5778 21.3447 33.9273 20.6435 33.7525C19.9468 33.6845 19.4158 33.0967 19.4226 32.3955C19.3704 31.5105 19.4703 30.6141 19.4226 29.7246C19.3659 29.4318 19.2683 29.1459 19.1321 28.8804C18.8939 29.0778 18.5512 29.223 18.4287 29.4749C17.9634 30.4848 17.5482 31.5763 17.083 32.6111C16.9423 32.9651 16.7471 33.2942 16.502 33.5846C16.0028 34.1542 15.1359 34.2132 14.5663 33.714C14.3349 33.512 14.1783 33.2352 14.1215 32.9333C14.0784 32.7858 14.0512 32.6361 14.0444 32.484C14.0444 30.4122 13.9763 28.3017 14.0126 26.2094C14.0308 25.6534 14.2123 25.1134 14.53 24.6572C14.8613 24.2283 15.3265 23.9197 15.8507 23.7767C16.6473 23.5634 17.0421 23.9424 17.0784 24.8115C17.1102 25.4787 17.0784 26.1527 17.0784 26.8244L17.4256 26.922C17.6798 26.6746 17.9113 26.4068 18.12 26.1186C18.5557 25.4038 18.9324 24.6481 19.3681 23.9288C19.6836 23.2775 20.4279 22.9575 21.1178 23.1731C21.7963 23.3297 22.2456 23.9787 22.1526 24.6686V26.9152L22.4476 27.0082C22.6563 26.8199 22.8538 26.6156 23.033 26.3978C23.6548 25.658 24.2335 24.8751 24.8757 24.1557C25.1435 23.8494 25.4793 23.6088 25.8538 23.4522C26.6049 23.0846 27.5081 23.3955 27.8757 24.1466C28.0164 24.4326 28.0618 24.7548 28.0073 25.068C27.9029 26.5702 27.8099 28.0702 27.7282 29.5725C27.7259 29.8448 27.7395 30.1194 27.769 30.3895C28.8878 30.0286 29.707 29.0665 29.8863 27.9046C29.9634 26.6655 30.1132 25.4333 30.3356 24.2124C30.4536 23.4727 31.0641 22.9076 31.8106 22.8509C32.4801 22.7124 33.17 22.9779 33.5716 23.5339C34.0255 24.1852 34.0436 25.0453 33.6125 25.7124C32.9907 26.7472 33.0315 27.8705 33.1722 28.978C33.2403 29.4636 33.5126 29.8948 33.9188 30.1693C34.4839 30.4439 34.9536 29.9469 35.176 29.45C35.5731 28.4333 35.9203 27.3963 36.2108 26.3433C36.4286 25.6126 36.5172 24.841 36.7282 24.1171C37.0482 23.1073 37.763 22.6625 38.6231 22.8645C39.533 23.0891 40.1185 23.9742 39.9687 24.9C39.9075 25.4174 39.7055 25.8826 39.6261 26.3864C39.3765 27.9091 39.1609 29.4364 38.9158 31.0453C40.0867 30.6777 41.0172 30.3622 41.9703 30.1081C42.4173 30.015 42.8757 29.9833 43.3318 30.0196C44.1919 30.0196 44.5958 30.4485 44.884 31.422C45.8303 34.4923 47.8818 36.3305 51.0542 36.8638C55.62 37.6353 59.968 33.5392 59.5141 28.928C59.4824 28.6217 59.4415 28.3176 59.4211 28.0112C59.2373 27.1739 59.7683 26.3456 60.6057 26.1618C61.443 25.978 62.2713 26.509 62.4551 27.3463C62.4755 27.4439 62.4892 27.5415 62.4914 27.6413C63.1178 31.835 61.797 35.3184 58.443 37.9008C53.8228 41.4228 47.2214 40.5309 43.6995 35.9106C43.4113 35.5317 43.148 35.1323 42.912 34.717C42.2017 33.4848 41.9748 33.4122 40.6858 34.0294C40.62 34.068 40.5497 34.102 40.4793 34.1338C39.1904 34.6149 38.7093 35.5203 38.589 36.9137C38.4188 39.1194 38.0716 41.3093 37.5542 43.4629C36.8598 46.211 35.1783 46.6989 32.8954 45.015C30.0746 42.9591 29.5572 39.7821 31.7153 37.0839C32.648 36.006 33.701 35.0392 34.8583 34.2064C35.4529 33.8615 35.7615 33.1716 35.6253 32.4931ZM35.412 37.6398L35.092 37.4992C34.6495 38.0914 34.2411 38.7087 33.8712 39.3464C33.5671 39.9659 33.7078 40.7125 34.2184 41.1799C34.5497 41.5362 34.8923 41.6361 34.9854 41.0029C35.1533 39.866 35.2532 38.7631 35.412 37.6398Z" fill="#FF2D39"/>
<path d="M57.1913 21.0106C57.0597 19.9236 57.5113 18.848 58.3759 18.1785C59.0181 17.6044 59.5922 16.9418 60.2299 16.3563C60.4682 16.1974 60.7314 16.0772 61.006 16C61.1195 16.2383 61.1989 16.4902 61.2443 16.7511C61.276 17.6679 61.2692 18.5847 61.2443 19.5061C61.2443 20.1483 61.5279 20.4319 62.1701 20.4274H64.9977C65.2337 20.4682 65.4629 20.5454 65.6762 20.6543C65.6149 20.9107 65.5128 21.1536 65.3698 21.3737C64.6187 22.1702 63.8176 22.9259 63.0552 23.7088C62.531 24.2557 61.773 24.5098 61.0264 24.3873C59.9825 24.2284 58.9364 24.6596 58.3078 25.5106C57.5045 26.4319 56.5627 27.2284 55.7185 28.1248C55.4803 28.3949 55.3509 28.7443 55.3509 29.1029C55.4848 30.8888 54.1437 32.4433 52.36 32.5749C50.5741 32.7088 49.0196 31.3676 48.888 29.584C48.8789 29.4728 48.8766 29.3593 48.8812 29.2481C48.9424 27.4917 50.4175 26.1165 52.1739 26.1778C52.2624 26.18 52.3532 26.1868 52.4417 26.1982C52.891 26.2731 53.3494 26.1074 53.649 25.7625C54.5136 24.8616 55.3827 23.9607 56.3154 23.1278C56.9939 22.5492 57.4092 21.9274 57.1913 21.0106Z" fill="#FF2D39"/>
<path d="M42.6194 24.9705C42.7079 24.6959 42.8191 24.4304 42.9507 24.1739C45.1928 20.3139 49.6157 18.2715 54.009 19.0703C55.0801 19.2768 55.686 20.003 55.5317 20.9039C55.3774 21.8048 54.5627 22.3426 53.4598 22.1407C50.4394 21.587 47.3872 22.9349 45.7624 25.5423C45.6285 25.7897 45.4719 26.0234 45.2972 26.2413C44.8683 26.7473 44.1535 26.9039 43.5521 26.6202C42.9349 26.3593 42.6081 25.8577 42.6194 24.9705Z" fill="#FF2D39"/>
</g>
<path d="M26.3422 58.1994H23.9572V64.686H22.3529V58.1994H20V56.8999H26.3422V58.1994Z" fill="black"/>
<path d="M31.016 63.0817H28.2032L27.6684 64.686H25.9626L28.861 56.8999H30.3476L33.262 64.686H31.5561L31.016 63.0817ZM28.6364 61.7823H30.5829L29.6043 58.8678L28.6364 61.7823Z" fill="black"/>
<path d="M36.8717 61.8357H35.5936V64.686H33.9893V56.8999H36.8824C37.8021 56.8999 38.5116 57.1049 39.0107 57.5149C39.5098 57.9249 39.7594 58.5042 39.7594 59.2529C39.7594 59.7841 39.6435 60.2279 39.4118 60.5844C39.1836 60.9374 38.836 61.219 38.369 61.4293L40.0535 64.6112V64.686H38.3316L36.8717 61.8357ZM35.5936 60.5363H36.8877C37.2906 60.5363 37.6025 60.4347 37.8235 60.2315C38.0446 60.0247 38.1551 59.7413 38.1551 59.3812C38.1551 59.014 38.0499 58.7252 37.8396 58.5149C37.6328 58.3046 37.3137 58.1994 36.8824 58.1994H35.5936V60.5363Z" fill="black"/>
<path d="M47.1444 63.7021C46.8556 64.0479 46.4474 64.317 45.9198 64.5095C45.3922 64.6985 44.8075 64.793 44.1658 64.793C43.492 64.793 42.9002 64.6468 42.3904 64.3545C41.8841 64.0586 41.492 63.6308 41.2139 63.071C40.9394 62.5113 40.7986 61.8536 40.7914 61.0978V60.5684C40.7914 59.7912 40.9216 59.1192 41.1818 58.5523C41.4456 57.9819 41.8235 57.547 42.3155 57.2475C42.8111 56.9445 43.3904 56.793 44.0535 56.793C44.9768 56.793 45.6988 57.014 46.2193 57.4561C46.7398 57.8946 47.0481 58.5345 47.1444 59.3759H45.5829C45.5116 58.9302 45.3529 58.604 45.107 58.3972C44.8645 58.1905 44.5294 58.0871 44.1016 58.0871C43.5562 58.0871 43.1408 58.2921 42.8556 58.7021C42.5704 59.112 42.426 59.7217 42.4225 60.5309V61.0283C42.4225 61.8447 42.5775 62.4614 42.8877 62.8785C43.1979 63.2956 43.6524 63.5042 44.2513 63.5042C44.8538 63.5042 45.2834 63.3759 45.5401 63.1192V61.7769H44.0802V60.5951H47.1444V63.7021Z" fill="black"/>
<path d="M53.1337 61.3117H50.0535V63.3972H53.6684V64.686H48.4492V56.8999H53.6578V58.1994H50.0535V60.055H53.1337V61.3117Z" fill="black"/>
<path d="M60.5775 58.1994H58.1925V64.686H56.5882V58.1994H54.2353V56.8999H60.5775V58.1994Z" fill="black"/>
<defs>
<clipPath id="clip0">
<rect x="14" y="16" width="51.6762" height="30" fill="white"/>
</clipPath>
</defs>
</svg>
