<svg width="80" height="80" viewBox="0 0 80 80" fill="none" xmlns="http://www.w3.org/2000/svg">
<rect width="80" height="80" fill="white"/>
<path d="M14.404 66H13V57.996H16.516C17.324 57.996 17.96 58.236 18.424 58.716C18.896 59.196 19.132 59.792 19.132 60.504C19.132 61.208 18.896 61.804 18.424 62.292C17.96 62.772 17.324 63.012 16.516 63.012H14.404V66ZM16.324 61.776C16.724 61.776 17.052 61.66 17.308 61.428C17.564 61.196 17.692 60.888 17.692 60.504C17.692 60.12 17.564 59.812 17.308 59.58C17.052 59.348 16.724 59.232 16.324 59.232H14.404V61.776H16.324Z" fill="black"/>
<path d="M27.2728 66H25.8688V62.508H21.7048V66H20.3008V57.996H21.7048V61.272H25.8688V57.996H27.2728V66Z" fill="black"/>
<path d="M30.3767 66H28.9727V57.996H32.4887C33.2967 57.996 33.9327 58.236 34.3967 58.716C34.8687 59.196 35.1047 59.792 35.1047 60.504C35.1047 61.208 34.8687 61.804 34.3967 62.292C33.9327 62.772 33.2967 63.012 32.4887 63.012H30.3767V66ZM32.2967 61.776C32.6967 61.776 33.0247 61.66 33.2807 61.428C33.5367 61.196 33.6647 60.888 33.6647 60.504C33.6647 60.12 33.5367 59.812 33.2807 59.58C33.0247 59.348 32.6967 59.232 32.2967 59.232H30.3767V61.776H32.2967Z" fill="black"/>
<path d="M39.0094 66.144C37.6334 66.144 36.5494 65.72 35.7574 64.872L36.5374 63.792C37.2254 64.528 38.0694 64.896 39.0694 64.896C39.6054 64.896 40.0054 64.788 40.2694 64.572C40.5414 64.356 40.6774 64.1 40.6774 63.804C40.6774 63.5 40.5174 63.26 40.1974 63.084C39.8774 62.9 39.4894 62.756 39.0334 62.652C38.5774 62.548 38.1174 62.424 37.6534 62.28C37.1974 62.136 36.8094 61.892 36.4894 61.548C36.1694 61.204 36.0094 60.76 36.0094 60.216C36.0094 59.544 36.2774 58.988 36.8134 58.548C37.3574 58.1 38.0614 57.876 38.9254 57.876C40.1574 57.876 41.1574 58.248 41.9254 58.992L41.1214 60.036C40.5134 59.428 39.7414 59.124 38.8054 59.124C38.3894 59.124 38.0574 59.216 37.8094 59.4C37.5694 59.576 37.4494 59.816 37.4494 60.12C37.4494 60.32 37.5334 60.488 37.7014 60.624C37.8774 60.76 38.1014 60.872 38.3734 60.96C38.6454 61.04 38.9454 61.12 39.2734 61.2C39.6094 61.28 39.9414 61.38 40.2694 61.5C40.6054 61.612 40.9094 61.752 41.1814 61.92C41.4534 62.088 41.6734 62.32 41.8414 62.616C42.0174 62.912 42.1054 63.264 42.1054 63.672C42.1054 64.392 41.8454 64.984 41.3254 65.448C40.8054 65.912 40.0334 66.144 39.0094 66.144Z" fill="black"/>
<path d="M44.9267 66.144C44.4387 66.144 44.0667 66.016 43.8107 65.76C43.5627 65.504 43.4387 65.136 43.4387 64.656V61.308H42.4787V60.204H43.4387V58.62H44.6987V60.204H45.8747V61.308H44.6987V64.344C44.6987 64.552 44.7467 64.72 44.8427 64.848C44.9387 64.968 45.0747 65.028 45.2507 65.028C45.5067 65.028 45.6947 64.96 45.8147 64.824L46.1147 65.772C45.8507 66.02 45.4547 66.144 44.9267 66.144Z" fill="black"/>
<path d="M49.6347 66.144C48.7387 66.144 48.0187 65.852 47.4747 65.268C46.9307 64.676 46.6587 63.952 46.6587 63.096C46.6587 62.24 46.9307 61.52 47.4747 60.936C48.0187 60.352 48.7387 60.06 49.6347 60.06C50.5387 60.06 51.2627 60.352 51.8067 60.936C52.3507 61.52 52.6227 62.24 52.6227 63.096C52.6227 63.96 52.3507 64.684 51.8067 65.268C51.2627 65.852 50.5387 66.144 49.6347 66.144ZM49.6347 65.028C50.1547 65.028 50.5627 64.844 50.8587 64.476C51.1627 64.1 51.3147 63.64 51.3147 63.096C51.3147 62.56 51.1627 62.108 50.8587 61.74C50.5627 61.364 50.1547 61.176 49.6347 61.176C49.1227 61.176 48.7147 61.364 48.4107 61.74C48.1147 62.108 47.9667 62.56 47.9667 63.096C47.9667 63.64 48.1147 64.1 48.4107 64.476C48.7147 64.844 49.1227 65.028 49.6347 65.028Z" fill="black"/>
<path d="M55.1576 66H53.8976V60.204H55.1576V61.056C55.3816 60.768 55.6616 60.532 55.9976 60.348C56.3336 60.164 56.6816 60.072 57.0416 60.072V61.32C56.9296 61.296 56.7976 61.284 56.6456 61.284C56.3816 61.284 56.0976 61.364 55.7936 61.524C55.4976 61.676 55.2856 61.852 55.1576 62.052V66Z" fill="black"/>
<path d="M66.4217 66H65.1618V62.22C65.1618 61.524 64.8457 61.176 64.2137 61.176C63.9497 61.176 63.6938 61.252 63.4458 61.404C63.1978 61.556 63.0058 61.736 62.8698 61.944V66H61.6097V62.22C61.6097 61.524 61.2897 61.176 60.6497 61.176C60.3937 61.176 60.1417 61.252 59.8937 61.404C59.6537 61.556 59.4617 61.74 59.3177 61.956V66H58.0578V60.204H59.3177V60.996C59.4617 60.78 59.7097 60.572 60.0617 60.372C60.4217 60.164 60.8018 60.06 61.2018 60.06C62.0418 60.06 62.5698 60.416 62.7858 61.128C62.9698 60.84 63.2417 60.592 63.6017 60.384C63.9617 60.168 64.3457 60.06 64.7537 60.06C65.8657 60.06 66.4217 60.644 66.4217 61.812V66Z" fill="black"/>
<path d="M42.1029 20.9486L40.5943 16.3771L29.44 14L24 20.1714L41.0057 28.8571L42.1029 20.9486Z" fill="url(#paint0_linear)"/>
<path d="M36.8 32.9257L36.48 23.4171L24 20.1714L27.0629 38.5028L36.8 38.4114V32.9257Z" fill="url(#paint1_linear)"/>
<path d="M34.1028 32.7429L34.6971 25.2L43.7486 15.92L51.84 17.3829L56 27.76L51.6571 32.0572L44.5714 30.9143L40.1828 35.5314L34.1028 32.7429Z" fill="url(#paint2_linear)"/>
<path d="M43.7485 15.92L30.7657 27.44L33.28 42.2514L44.0685 46L56 38.8686L43.7485 15.92Z" fill="url(#paint3_linear)"/>
<path d="M49.8743 20.1257H30.1257V39.8743H49.8743V20.1257Z" fill="black"/>
<path d="M39.4057 36.1714H32V37.4057H39.4057V36.1714Z" fill="white"/>
<path d="M31.9086 22.6857H35.2457C37.2114 22.6857 38.4 23.8286 38.4 25.52V25.5657C38.4 27.4857 36.9371 28.4457 35.0629 28.4457H33.6914V30.9143H31.9086V22.6857ZM35.1543 26.8C36.0686 26.8 36.5714 26.2514 36.5714 25.5657V25.52C36.5714 24.6972 36.0229 24.2857 35.1086 24.2857H33.7371V26.8H35.1543Z" fill="white"/>
<path d="M38.8571 29.7257L39.9085 28.4457C40.64 29.04 41.4171 29.4514 42.3771 29.4514C43.1085 29.4514 43.5657 29.1771 43.5657 28.6743V28.6286C43.5657 28.1714 43.2914 27.9428 41.92 27.5771C40.2743 27.1657 39.1771 26.7086 39.1771 25.0628V25.0171C39.1771 23.5086 40.3657 22.5486 42.0571 22.5486C43.2457 22.5486 44.2971 22.9143 45.12 23.6L44.16 24.9714C43.4285 24.4686 42.6971 24.1486 42.0114 24.1486C41.3257 24.1486 40.96 24.4686 40.96 24.88V24.9257C40.96 25.4743 41.3257 25.6571 42.7428 26.0228C44.3885 26.48 45.3485 27.0743 45.3485 28.4914V28.5371C45.3485 30.1828 44.1143 31.0971 42.3314 31.0971C41.0971 31.0514 39.8628 30.5943 38.8571 29.7257Z" fill="white"/>
<defs>
<linearGradient id="paint0_linear" x1="24.2551" y1="35.4152" x2="37.6902" y2="17.6688" gradientUnits="userSpaceOnUse">
<stop offset="0.016129" stop-color="#765AF8"/>
<stop offset="0.3821" stop-color="#B345F1"/>
<stop offset="0.7581" stop-color="#FA3293"/>
<stop offset="0.9409" stop-color="#FF318C"/>
</linearGradient>
<linearGradient id="paint1_linear" x1="25.2479" y1="36.116" x2="38.6614" y2="18.3981" gradientUnits="userSpaceOnUse">
<stop offset="0.016129" stop-color="#765AF8"/>
<stop offset="0.3821" stop-color="#B345F1"/>
<stop offset="0.7581" stop-color="#FA3293"/>
<stop offset="0.9409" stop-color="#FF318C"/>
</linearGradient>
<linearGradient id="paint2_linear" x1="47.2488" y1="35.2137" x2="39.6681" y2="17.222" gradientUnits="userSpaceOnUse">
<stop offset="0.1828" stop-color="#765AF8"/>
<stop offset="0.2382" stop-color="#8655F6"/>
<stop offset="0.3449" stop-color="#9F4CF3"/>
<stop offset="0.4425" stop-color="#AE47F2"/>
<stop offset="0.5219" stop-color="#B345F1"/>
</linearGradient>
<linearGradient id="paint3_linear" x1="52.9214" y1="40.212" x2="35.2903" y2="26.5787" gradientUnits="userSpaceOnUse">
<stop offset="0.016129" stop-color="#765AF8"/>
<stop offset="0.3821" stop-color="#B345F1"/>
</linearGradient>
</defs>
</svg>
