<svg width="80" height="80" viewBox="0 0 80 80" fill="none" xmlns="http://www.w3.org/2000/svg">
<rect width="80" height="80" fill="white"/>
<path d="M13.2517 66.0001V63.0121H15.3637C17.0317 63.0121 17.9797 61.8601 17.9797 60.5041C17.9797 59.1481 17.0437 57.9961 15.3637 57.9961H11.8477V66.0001H13.2517ZM15.1717 61.7761H13.2517V59.2321H15.1717C15.9637 59.2321 16.5397 59.7361 16.5397 60.5041C16.5397 61.2721 15.9637 61.7761 15.1717 61.7761Z" fill="#050505"/>
<path d="M24.2964 66.0001V61.8961C24.2964 60.7081 23.6724 60.0601 22.4244 60.0601C21.5124 60.0601 20.7564 60.5401 20.3724 60.9961V57.9961H19.1124V66.0001H20.3724V61.9561C20.6724 61.5601 21.2244 61.1761 21.8604 61.1761C22.5684 61.1761 23.0364 61.4521 23.0364 62.3521V66.0001H24.2964Z" fill="#050505"/>
<path d="M28.5487 66.1441C30.4087 66.1441 31.5368 64.7641 31.5368 63.0961C31.5368 61.4401 30.4087 60.0601 28.5487 60.0601C26.7127 60.0601 25.5728 61.4401 25.5728 63.0961C25.5728 64.7641 26.7127 66.1441 28.5487 66.1441ZM28.5487 65.0281C27.4807 65.0281 26.8807 64.1281 26.8807 63.0961C26.8807 62.0761 27.4807 61.1761 28.5487 61.1761C29.6287 61.1761 30.2288 62.0761 30.2288 63.0961C30.2288 64.1281 29.6287 65.0281 28.5487 65.0281Z" fill="#050505"/>
<path d="M34.5517 66.1441C35.1397 66.1441 35.5117 65.9881 35.7397 65.7721L35.4397 64.8241C35.3437 64.9321 35.1157 65.0281 34.8757 65.0281C34.5157 65.0281 34.3237 64.7401 34.3237 64.3441V61.3081H35.4997V60.2041H34.3237V58.6201H33.0637V60.2041H32.1037V61.3081H33.0637V64.6561C33.0637 65.6161 33.5797 66.1441 34.5517 66.1441Z" fill="#050505"/>
<path d="M39.2597 66.1441C41.1197 66.1441 42.2477 64.7641 42.2477 63.0961C42.2477 61.4401 41.1197 60.0601 39.2597 60.0601C37.4237 60.0601 36.2837 61.4401 36.2837 63.0961C36.2837 64.7641 37.4237 66.1441 39.2597 66.1441ZM39.2597 65.0281C38.1917 65.0281 37.5917 64.1281 37.5917 63.0961C37.5917 62.0761 38.1917 61.1761 39.2597 61.1761C40.3397 61.1761 40.9397 62.0761 40.9397 63.0961C40.9397 64.1281 40.3397 65.0281 39.2597 65.0281Z" fill="#050505"/>
<path d="M45.5026 66.1441C47.0626 66.1441 47.9146 65.3641 47.9146 64.3441C47.9146 62.0401 44.4106 62.8081 44.4106 61.7761C44.4106 61.3681 44.8306 61.0681 45.4906 61.0681C46.2106 61.0681 46.8586 61.3681 47.2066 61.7641L47.7346 60.8761C47.2066 60.4081 46.4626 60.0601 45.4786 60.0601C44.0146 60.0601 43.1986 60.8761 43.1986 61.8241C43.1986 64.0441 46.7026 63.2281 46.7026 64.3681C46.7026 64.8241 46.3186 65.1481 45.5626 65.1481C44.8066 65.1481 44.0026 64.7521 43.5946 64.3321L43.0186 65.2441C43.6186 65.8321 44.5186 66.1441 45.5026 66.1441Z" fill="#050505"/>
<path d="M54.3667 66.0001V61.8961C54.3667 60.7081 53.7427 60.0601 52.4947 60.0601C51.5827 60.0601 50.8267 60.5401 50.4427 60.9961V57.9961H49.1828V66.0001H50.4427V61.9561C50.7427 61.5601 51.2947 61.1761 51.9307 61.1761C52.6387 61.1761 53.1068 61.4521 53.1068 62.3521V66.0001H54.3667Z" fill="#050505"/>
<path d="M58.6191 66.1441C60.4791 66.1441 61.6071 64.7641 61.6071 63.0961C61.6071 61.4401 60.4791 60.0601 58.6191 60.0601C56.7831 60.0601 55.6431 61.4401 55.6431 63.0961C55.6431 64.7641 56.7831 66.1441 58.6191 66.1441ZM58.6191 65.0281C57.5511 65.0281 56.9511 64.1281 56.9511 63.0961C56.9511 62.0761 57.5511 61.1761 58.6191 61.1761C59.6991 61.1761 60.2991 62.0761 60.2991 63.0961C60.2991 64.1281 59.6991 65.0281 58.6191 65.0281Z" fill="#050505"/>
<path d="M66.002 66.1441C67.502 66.1441 68.57 65.0041 68.57 63.0961C68.57 61.1881 67.502 60.0601 66.002 60.0601C65.246 60.0601 64.574 60.4201 64.142 60.9961V60.2041H62.882V68.2081H64.142V65.1961C64.61 65.8201 65.27 66.1441 66.002 66.1441ZM65.63 65.0281C65.042 65.0281 64.418 64.6681 64.142 64.2481V61.9561C64.418 61.5241 65.042 61.1761 65.63 61.1761C66.626 61.1761 67.262 61.9801 67.262 63.0961C67.262 64.2241 66.626 65.0281 65.63 65.0281Z" fill="#050505"/>
<g clip-path="url(#clip0)">
<path d="M26.2812 16.2847H54.4807V43.7149H26.2812V16.2847Z" fill="url(#paint0_radial)"/>
<path d="M26.2818 16.2847H54.4812V43.7151H26.2818V16.2847ZM25 44.9969H55.763V15.0029H25V44.9969ZM45.7394 27.3081C44.7267 27.3081 44.3807 27.8208 44.3807 28.2438C44.3807 28.7052 44.6114 29.0257 45.9701 29.7307C47.9825 30.7049 48.6106 31.6406 48.6106 33.0121C48.6106 35.0629 47.0468 36.1653 44.9319 36.1653C43.8167 36.1653 42.8553 35.9345 42.3042 35.6141C42.2145 35.5757 42.2016 35.5116 42.2016 35.409V33.5248C42.2016 33.3966 42.2657 33.3581 42.3555 33.4223C43.163 33.9478 44.0859 34.1785 44.9319 34.1785C45.9445 34.1785 46.3675 33.7555 46.3675 33.1787C46.3675 32.7173 46.0726 32.3071 44.778 31.6406C42.9578 30.769 42.2016 29.8845 42.2016 28.4105C42.2016 26.7569 43.4963 25.3854 45.7394 25.3854C46.8417 25.3854 47.6108 25.5521 48.0338 25.7443C48.1363 25.8084 48.1619 25.9109 48.1619 26.0007V27.7567C48.1619 27.8592 48.0979 27.9233 47.9696 27.8848C47.4057 27.526 46.5725 27.3081 45.7394 27.3081V27.3081ZM34.716 28.8335C35.0108 28.8591 35.2415 28.8591 35.7542 28.8591C37.254 28.8591 38.6639 28.3336 38.6639 26.2955C38.6639 24.6677 37.6513 23.8473 35.9465 23.8473C35.4338 23.8473 34.9467 23.8729 34.716 23.8857V28.8335ZM32.4344 22.0271C32.4344 21.9374 32.6139 21.8733 32.7164 21.8733C33.5368 21.8348 34.7545 21.8092 36.0234 21.8092C39.574 21.8092 40.9583 23.7575 40.9583 26.2442C40.9583 29.4999 38.5998 30.8971 35.703 30.8971C35.2159 30.8971 35.0493 30.8715 34.7031 30.8715V35.7936C34.7031 35.8961 34.6647 35.9474 34.5493 35.9474H32.5882C32.4857 35.9474 32.4344 35.9089 32.4344 35.7936V22.0271H32.4344Z" fill="#31C5F0"/>
</g>
<defs>
<radialGradient id="paint0_radial" cx="0" cy="0" r="1" gradientUnits="userSpaceOnUse" gradientTransform="translate(35.5688 22.4318) scale(21.4315 20.7495)">
<stop stop-color="#34364E" stop-opacity="0.98"/>
<stop offset="1" stop-color="#0C0824"/>
</radialGradient>
<clipPath id="clip0">
<rect x="25" y="15" width="30.7629" height="30" fill="white"/>
</clipPath>
</defs>
</svg>
