<svg width="80" height="80" viewBox="0 0 80 80" fill="none" xmlns="http://www.w3.org/2000/svg">
<rect width="80" height="80" fill="white"/>
<path fill-rule="evenodd" clip-rule="evenodd" d="M30 26L40 45L23 26H30Z" fill="#EA6C00"/>
<path fill-rule="evenodd" clip-rule="evenodd" d="M50.1146 26L40 45L57 26H50.1146Z" fill="#EA6C00"/>
<path fill-rule="evenodd" clip-rule="evenodd" d="M30 26H50L40 45L30 26Z" fill="#FDAD00"/>
<path fill-rule="evenodd" clip-rule="evenodd" d="M40.0837 15.076L30.6022 16.0193L30 25.9997L40.0837 15.076Z" fill="#FDD231"/>
<path fill-rule="evenodd" clip-rule="evenodd" d="M40.0003 15.0731L49.4814 16.0192L50.0808 25.9997L40.0003 15.0731Z" fill="#FDD231"/>
<path fill-rule="evenodd" clip-rule="evenodd" d="M57 26L49.5 16L50 26H57Z" fill="#FDAD00"/>
<path fill-rule="evenodd" clip-rule="evenodd" d="M23 26L30.5 16L30 26H23Z" fill="#FDAD00"/>
<path fill-rule="evenodd" clip-rule="evenodd" d="M40 15L30 26H50L40 15Z" fill="#FEEEB7"/>
<path fill-rule="evenodd" clip-rule="evenodd" d="M21.2488 62.9229L21.2376 62.7759H20L20.0069 62.9413C20.083 64.781 21.3349 66 23.5611 66C25.6845 66 27.1285 64.9068 27.1285 63.2519C27.1285 62.3573 26.8152 61.724 26.2183 61.2919C25.7589 60.9592 25.2101 60.7715 24.2996 60.576L24.0995 60.5336L23.9011 60.4924C22.2471 60.1494 21.7228 59.8505 21.7228 58.9621C21.7228 58.0432 22.4809 57.458 23.7529 57.458C24.9905 57.458 25.7724 58.2068 25.8088 59.3857L25.8137 59.5396H27.0424L27.0386 59.3774C26.9959 57.5397 25.7517 56.3029 23.7406 56.3029C21.7694 56.3029 20.4677 57.4784 20.4677 59C20.4677 59.8923 20.7807 60.5136 21.3786 60.9285C21.834 61.2449 22.3617 61.4128 23.2926 61.599C23.3877 61.6181 23.4828 61.6369 23.578 61.6552C24.4587 61.8277 24.8472 61.9343 25.2018 62.1386C25.642 62.3922 25.8602 62.7544 25.8602 63.3155C25.8602 64.2898 25.0338 64.8449 23.5867 64.8449C22.2015 64.8449 21.3418 64.1566 21.2488 62.9229V62.9229ZM29.7148 56.1588V56H28.4936V65.8484H29.7148V63.9901L31.0006 62.7395L33.2965 65.7851L33.3442 65.8481H34.8635L34.6696 65.5934L31.8657 61.9045L34.4517 59.3341L34.7245 59.0624H33.0648L33.018 59.1094L29.7148 62.4321V56.1588V56.1588ZM41.2118 62.8605H41.3626L41.372 62.7109C41.3771 62.6301 41.3809 62.5493 41.3835 62.4685C41.3847 62.4272 41.3852 62.3897 41.3852 62.3564C41.3852 60.354 40.0515 58.8788 38.0806 58.8788C36.1134 58.8788 34.7119 60.4491 34.7119 62.4329C34.7119 64.4744 36.0499 66 38.0935 66C39.6386 66 40.8325 65.0882 41.2626 63.7052L41.327 63.4986H40.0463L40.0084 63.6047C39.7385 64.3618 39.0072 64.8641 38.1061 64.8641C36.9289 64.8641 36.1076 64.0597 35.9598 62.8605H41.2121H41.2118ZM35.925 61.9091C36.1312 60.8162 36.9177 60.0909 37.9884 60.0909C39.0919 60.0909 39.8536 60.7924 40.0202 61.9091H35.9253H35.925ZM45.3213 60.129H45.4801V59.051H43.9919V57.2121H42.7707V59.051H41.5369V60.129H42.7707V63.927C42.7707 65.173 43.4191 65.8484 44.609 65.8484C44.8166 65.8484 44.9957 65.8361 45.1459 65.8152C45.2389 65.8023 45.303 65.7888 45.3383 65.7791L45.4549 65.747V64.6182L45.2619 64.6598C45.2053 64.6712 45.1485 64.6811 45.0913 64.6896C44.9696 64.708 44.8467 64.7181 44.7235 64.7197C44.2021 64.7197 43.9919 64.4755 43.9919 63.8637V60.129H45.3213V60.129ZM49.1093 66C50.7865 66 51.9706 64.9268 52.2681 63.4084L52.3054 63.2178H51.0831L51.0521 63.3364C50.7974 64.3053 50.1059 64.8638 49.1093 64.8638C47.866 64.8638 47.008 63.8723 47.008 62.4458C47.008 61.0082 47.8642 60.0147 49.1093 60.0147C50.1059 60.0147 50.7974 60.5735 51.0521 61.5423L51.0831 61.6609H52.3054L52.2681 61.4704C51.9706 59.9516 50.7865 58.8788 49.1093 58.8788C47.161 58.8788 45.7836 60.4603 45.7836 62.4458C45.7836 64.4202 47.1631 66 49.1093 66V66ZM54.5856 56.1585V56H53.367V65.8484H54.5856V61.8644C54.5856 60.6993 55.2943 60.0155 56.3693 60.0155C57.3961 60.0155 57.9118 60.6107 57.9118 61.7375V65.8484H59.1304V61.5592C59.1304 59.9674 58.1458 58.9097 56.5218 58.9097C55.6862 58.9097 55.0146 59.2163 54.5856 59.6559V56.1588V56.1585Z" fill="black"/>
</svg>
