<svg width="80" height="80" viewBox="0 0 80 80" fill="none" xmlns="http://www.w3.org/2000/svg">
<rect width="80" height="80" fill="white"/>
<path d="M36.4053 26.9566C35.0323 26.9566 33.6007 27.9587 33.6007 27.9587V27.3147C33.6007 27.1735 33.5443 27.1169 33.4031 27.1169H31.6506C31.5092 27.1169 31.4244 27.2017 31.4244 27.3147V41.0504C31.4244 41.1921 31.481 41.2769 31.6223 41.2769H33.403C33.5158 41.2769 33.6006 41.1921 33.6006 41.0504V29.2928C33.6006 29.2928 34.4271 28.7692 35.431 28.7692C36.3866 28.7692 37.1412 29.2435 37.1412 30.2161V41.0498C37.1412 41.1916 37.2257 41.2763 37.3673 41.2763H39.1194C39.2608 41.2763 39.3172 41.1629 39.3172 41.0498V29.6004C39.3171 27.8761 38.2569 26.9566 36.4053 26.9566ZM50.037 20.0667H48.2844C48.1429 20.0667 48.0584 20.1513 48.0584 20.2646V27.1939C47.3856 26.9359 46.7731 26.7996 46.2781 26.7996C43.432 26.7996 41.4782 29.5203 41.4782 34.7521C41.4782 39.2343 43.3788 41.638 45.8592 41.638C46.9045 41.638 47.7677 41.0389 48.3996 40.477L48.7822 41.1256C48.8468 41.2378 48.8996 41.2762 49.0293 41.2762L50.0372 41.2772C50.1502 41.2772 50.2352 41.1924 50.2352 41.0506V20.2646C50.2349 20.1231 50.178 20.0667 50.037 20.0667V20.0667ZM43.7956 34.2892C43.7956 31.4063 44.6394 28.5518 46.3623 28.5518C46.946 28.5518 47.5064 28.7439 48.0587 29.1825V39.3387C47.6269 39.5737 47.0839 39.7899 46.4971 39.7899C44.6234 39.7899 43.7956 37.5679 43.7956 34.2892V34.2892ZM56.7496 26.8279C53.8312 26.8279 52.3908 30.6456 52.3908 34.8C52.3908 39.1488 54.4452 41.586 57.0865 41.586C58.2475 41.586 59.4033 41.1291 60.1612 40.708C60.2773 40.6433 60.2983 40.5524 60.2705 40.44L60.0488 39.5213C60.0211 39.4089 59.9646 39.353 59.8245 39.353C59.7629 39.353 58.8052 39.633 57.8737 39.633C55.7121 39.633 54.7209 37.7115 54.7209 35.1596V34.5394C54.7209 34.5394 55.7952 34.6879 56.4406 34.6879H60.5187V33.5093C60.5188 29.158 58.9951 26.8279 56.7496 26.8279V26.8279ZM56.6092 32.9194C55.9638 32.9194 54.7891 33.0791 54.7891 33.0791C54.7891 33.0791 54.8047 32.6106 54.8612 32.1618C55.114 29.7757 55.683 28.5686 56.6654 28.5686C57.5195 28.5686 58.1049 29.8035 58.2454 31.965C58.2732 32.4142 58.2732 32.9194 58.2732 32.9194H56.6092ZM28.0963 28.6122C27.4482 27.3352 26.294 26.7772 24.9719 26.7772C24.1225 26.7772 22.7969 27.102 21.9115 27.5C21.7383 27.578 21.6289 27.6464 21.6289 27.7826C21.6289 27.8636 21.6693 27.9566 21.7136 28.037L22.3101 29.3142C22.3716 29.4583 22.4702 29.4914 22.5517 29.4914C22.6399 29.4914 22.7117 29.4497 22.7908 29.399C23.6544 28.8472 24.2869 28.5437 24.7876 28.5437C25.4501 28.5437 25.9 28.9831 26.1774 29.6441C26.436 30.2599 26.5358 31.1109 26.5358 32.0941C26.5358 32.2193 26.5365 32.3829 26.5365 32.3829C25.9923 32.0424 25.0495 31.8548 24.5788 31.8548C22.0469 31.8548 20.6816 34.2605 20.6816 36.833C20.6816 39.605 22.2775 41.6378 24.1951 41.6378C25.2631 41.6378 26.2299 41.0111 26.8775 40.2207C26.8775 40.2207 27.2223 41.0427 27.2673 41.1413C27.3127 41.2396 27.3605 41.2761 27.4902 41.2761L28.5151 41.277C28.6279 41.277 28.7127 41.1923 28.7127 41.0505V33.0826C28.7123 31.1244 28.6134 29.6308 28.0963 28.6122V28.6122ZM26.5362 39.051C26.0341 39.536 25.4329 39.7899 24.8918 39.7899C24.3508 39.7899 23.9328 39.54 23.5974 39.077C23.1893 38.5139 22.9989 37.6468 22.9989 36.6858C22.9989 35.1661 23.56 33.6068 24.7491 33.6068C25.3377 33.6068 25.9842 33.7984 26.5361 34.2374L26.5362 39.051V39.051ZM69.7735 27.1149H68.2113C68.0368 27.1149 67.9477 27.2063 67.9029 27.3249C67.5583 28.2306 67.215 29.1368 66.8731 30.0434C66.68 30.558 66.1601 32.0313 66.1601 32.0313L66.0997 32.0309C66.0974 32.0256 65.7171 30.959 65.5109 30.4249C65.3443 29.9918 64.4738 27.6996 64.3639 27.4172C64.3049 27.2654 64.2391 27.1149 64.0157 27.1149H62.3057C62.1177 27.1149 62.0114 27.3213 62.0719 27.4492C62.1331 27.5776 64.8575 33.7836 64.8575 33.7836C64.8575 33.7836 61.9317 40.7329 61.8459 40.8887C61.7604 41.0448 61.8677 41.2758 62.0758 41.2758H63.5744C63.8293 41.2758 63.93 41.1421 64.0066 40.9269C64.222 40.3235 64.5427 39.4844 64.9969 38.1875C65.2976 37.3282 65.7736 35.8198 65.7736 35.8198H65.826C65.826 35.8198 66.347 37.3571 66.541 37.8597C67.0306 39.1308 67.6568 40.7908 67.7234 40.9661C67.7926 41.1494 67.8894 41.2759 68.0645 41.2759H69.764C69.9321 41.2759 70.0101 41.084 69.9308 40.917C69.7416 40.5183 68.1276 36.5969 67.0069 34.0187C67.0069 34.0187 69.9152 27.6003 69.9721 27.4415C70.0299 27.2824 70.0132 27.1149 69.7735 27.1149V27.1149Z" fill="#272525"/>
<path d="M22.4506 18H20.4803C20.3058 18 20.197 18.0855 20.1718 18.2098C20.1468 18.3347 17.2174 27.2665 17.0044 28.0106C16.8534 28.5379 16.3613 30.3976 16.2432 30.8441L15.2244 28.0626C14.977 27.2971 12.604 20.6683 12.5346 20.4034C12.4963 20.2579 12.4293 20.0769 12.1741 20.0769H10.2508C10.0626 20.0769 9.95654 20.2833 10.017 20.4113C10.0656 20.5135 13.5397 29.7561 14.9433 33.2872V41.0505C14.9433 41.1923 14.9999 41.2771 15.1413 41.2771H16.9629C17.0759 41.2771 17.1607 41.1923 17.1607 41.0505V33.3483C18.3304 30.0805 22.6041 18.4567 22.6506 18.3266C22.7072 18.1673 22.6904 18 22.4506 18Z" fill="#FF0000"/>
<path fill-rule="evenodd" clip-rule="evenodd" d="M58.4467 51.5H21.5349V66.5H58.4467L62.2839 59L58.4467 51.5ZM59.3953 50H20V68H59.3953L64 59L59.3953 50Z" fill="#FADC02"/>
<path d="M26 62.8943V55.1956H28.2276C28.8941 55.1956 29.4847 55.3472 29.9992 55.6504C30.5173 55.9535 30.9179 56.3836 31.2011 56.9405C31.4843 57.4975 31.6259 58.1355 31.6259 58.8546V59.2406C31.6259 59.9703 31.4825 60.6118 31.1959 61.1652C30.9127 61.7187 30.5069 62.1452 29.9785 62.4448C29.4536 62.7444 28.8509 62.8943 28.1706 62.8943H26ZM27.3106 56.2743V61.8262H28.1654C28.8526 61.8262 29.3793 61.6076 29.7454 61.1705C30.1149 60.7299 30.3031 60.0989 30.3101 59.2776V58.8493C30.3101 58.0139 30.1322 57.3759 29.7765 56.9352C29.4208 56.4946 28.9045 56.2743 28.2276 56.2743H27.3106Z" fill="black"/>
<path d="M34.1487 62.8943H32.8899V57.1732H34.1487V62.8943ZM32.8122 55.6874C32.8122 55.49 32.8726 55.3261 32.9935 55.1956C33.1178 55.0652 33.2939 55 33.5219 55C33.7498 55 33.9259 55.0652 34.0503 55.1956C34.1746 55.3261 34.2368 55.49 34.2368 55.6874C34.2368 55.8813 34.1746 56.0434 34.0503 56.1738C33.9259 56.3007 33.7498 56.3642 33.5219 56.3642C33.2939 56.3642 33.1178 56.3007 32.9935 56.1738C32.8726 56.0434 32.8122 55.8813 32.8122 55.6874Z" fill="black"/>
<path d="M38.4587 58.347C38.293 58.3188 38.122 58.3047 37.9459 58.3047C37.3691 58.3047 36.9806 58.5303 36.7803 58.9815V62.8943H35.5215V57.1732H36.7233L36.7544 57.813C37.0583 57.3159 37.4797 57.0674 38.0184 57.0674C38.198 57.0674 38.3465 57.0921 38.4639 57.1414L38.4587 58.347Z" fill="black"/>
<path d="M41.6188 63C40.821 63 40.1734 62.7444 39.6761 62.2333C39.1823 61.7187 38.9353 61.0348 38.9353 60.1818V60.0231C38.9353 59.4521 39.0424 58.9427 39.2565 58.495C39.4741 58.0438 39.778 57.6931 40.1683 57.4428C40.5585 57.1926 40.9937 57.0674 41.4737 57.0674C42.237 57.0674 42.8258 57.3159 43.2402 57.813C43.6581 58.31 43.867 59.0132 43.867 59.9227V60.4408H40.2045C40.2425 60.9132 40.3962 61.2868 40.6656 61.5618C40.9384 61.8367 41.2803 61.9742 41.6913 61.9742C42.268 61.9742 42.7377 61.7363 43.1003 61.2604L43.779 61.9213C43.5545 62.2633 43.254 62.5294 42.8776 62.7198C42.5046 62.9066 42.085 63 41.6188 63ZM41.4685 58.0985C41.1232 58.0985 40.8434 58.2219 40.6293 58.4686C40.4186 58.7154 40.284 59.059 40.2252 59.4997H42.6238V59.4045C42.5961 58.9744 42.4839 58.6501 42.287 58.4316C42.0902 58.2095 41.8173 58.0985 41.4685 58.0985Z" fill="black"/>
<path d="M47.1514 61.9742C47.4657 61.9742 47.7264 61.8808 47.9336 61.694C48.1408 61.5072 48.2513 61.2763 48.2652 61.0013H49.4515C49.4376 61.3573 49.3289 61.6905 49.1251 62.0007C48.9213 62.3073 48.6451 62.5506 48.2962 62.7303C47.9474 62.9101 47.571 63 47.1669 63C46.383 63 45.7613 62.7409 45.302 62.2227C44.8427 61.7046 44.613 60.989 44.613 60.076V59.9438C44.613 59.0731 44.8409 58.377 45.2968 57.8553C45.7527 57.33 46.3743 57.0674 47.1617 57.0674C47.8283 57.0674 48.3705 57.2666 48.7884 57.6649C49.2097 58.0597 49.4307 58.5796 49.4515 59.2247H48.2652C48.2513 58.8969 48.1408 58.6272 47.9336 58.4157C47.7299 58.2042 47.4691 58.0985 47.1514 58.0985C46.7439 58.0985 46.4296 58.2501 46.2086 58.5532C45.9875 58.8528 45.8753 59.3093 45.8718 59.9227V60.1289C45.8718 60.7493 45.9806 61.2128 46.1982 61.5195C46.4192 61.8226 46.737 61.9742 47.1514 61.9742Z" fill="black"/>
<path d="M51.9795 55.7826V57.1732H52.9689V58.1249H51.9795V61.3186C51.9795 61.5371 52.0209 61.6957 52.1038 61.7944C52.1901 61.8896 52.3421 61.9372 52.5597 61.9372C52.7047 61.9372 52.8515 61.9196 53 61.8843V62.8784C52.7134 62.9595 52.4371 63 52.1711 63C51.2041 63 50.7206 62.4554 50.7206 61.3662V58.1249H49.7985V57.1732H50.7206V55.7826H51.9795Z" fill="black"/>
</svg>
