<svg width="40" height="40" viewBox="0 0 40 40" fill="none" xmlns="http://www.w3.org/2000/svg">
<path fill-rule="evenodd" clip-rule="evenodd" d="M4.99992 23.3333C5.92039 23.3333 6.66659 24.0794 6.66659 24.9999V31.6666C6.66659 32.1086 6.84218 32.5325 7.15474 32.8451C7.4673 33.1577 7.89123 33.3333 8.33325 33.3333H31.6666C32.1086 33.3333 32.5325 33.1577 32.8451 32.8451C33.1577 32.5325 33.3333 32.1086 33.3333 31.6666V24.9999C33.3333 24.0794 34.0794 23.3333 34.9999 23.3333C35.9204 23.3333 36.6666 24.0794 36.6666 24.9999V31.6666C36.6666 32.9927 36.1398 34.2644 35.2021 35.2021C34.2644 36.1398 32.9927 36.6666 31.6666 36.6666H8.33325C7.00717 36.6666 5.7354 36.1398 4.79772 35.2021C3.86004 34.2644 3.33325 32.9927 3.33325 31.6666V24.9999C3.33325 24.0794 4.07944 23.3333 4.99992 23.3333Z" fill="#CFFF80"/>
<path fill-rule="evenodd" clip-rule="evenodd" d="M10.4882 15.4882C11.139 14.8373 12.1943 14.8373 12.8452 15.4882L20 22.643L27.1548 15.4882C27.8057 14.8373 28.861 14.8373 29.5118 15.4882C30.1627 16.139 30.1627 17.1943 29.5118 17.8452L21.1785 26.1785C20.5276 26.8294 19.4724 26.8294 18.8215 26.1785L10.4882 17.8452C9.83728 17.1943 9.83728 16.139 10.4882 15.4882Z" fill="#CFFF80"/>
<path fill-rule="evenodd" clip-rule="evenodd" d="M19.9999 3.33325C20.9204 3.33325 21.6666 4.07944 21.6666 4.99992V24.9999C21.6666 25.9204 20.9204 26.6666 19.9999 26.6666C19.0794 26.6666 18.3333 25.9204 18.3333 24.9999V4.99992C18.3333 4.07944 19.0794 3.33325 19.9999 3.33325Z" fill="#CFFF80"/>
</svg>
