<svg width="40" height="40" viewBox="0 0 40 40" fill="none" xmlns="http://www.w3.org/2000/svg">
<g clip-path="url(#clip0)">
<path d="M38.3059 14.5679C37.6533 13.9188 36.598 13.9217 35.9488 14.5742L15.9134 34.7181C13.314 37.3174 9.09228 37.3174 6.48807 34.7146C3.88582 32.111 3.88583 27.8892 6.48839 25.2867L27.1169 4.54979C28.7398 2.92702 31.3782 2.92702 33.0057 4.55331C34.6328 6.18038 34.6328 8.81849 33.0053 10.446L15.9165 27.5347C15.9154 27.5358 15.9145 27.5371 15.9134 27.5381C15.2623 28.1856 14.2102 28.1847 13.5605 27.535C12.9097 26.8842 12.9097 25.8294 13.5605 25.1786L21.8091 16.9283C22.4599 16.2773 22.4599 15.222 21.8089 14.5712C21.1579 13.9204 20.1026 13.9205 19.4518 14.5714L11.2033 22.8216C9.25079 24.7741 9.25079 27.9395 11.2034 29.892C13.156 31.8446 16.3214 31.8446 18.274 29.892C18.2762 29.8898 18.278 29.8873 18.2802 29.8851L35.3623 12.803C38.2916 9.87367 38.2916 5.12496 35.3623 2.19568C32.4327 -0.731892 27.6843 -0.731892 24.7567 2.19568L4.12817 22.9327C0.226989 26.8339 0.226989 33.1657 4.13099 37.0716C8.03756 40.9762 14.3694 40.9762 18.2737 37.072L38.3123 16.925C38.9614 16.2723 38.9585 15.2171 38.3059 14.5679Z" fill="black"/>
</g>
<defs>
<clipPath id="clip0">
<rect width="40" height="40" fill="white"/>
</clipPath>
</defs>
</svg>
