<svg width="31" height="31" viewBox="0 0 31 31" fill="none" xmlns="http://www.w3.org/2000/svg">
<path d="M9.02647 15.8841C9.02647 15.0494 8.44682 14.5511 7.4239 14.5511C7.00663 14.5511 6.72393 14.5914 6.57568 14.6317V17.3123C6.75094 17.3521 6.96639 17.3657 7.26187 17.3657C8.35323 17.3657 9.02647 16.8136 9.02647 15.8841Z" fill="#00D9F5"/>
<path d="M15.3579 14.578C14.8995 14.578 14.6039 14.6184 14.4282 14.6588V20.5978C14.6036 20.6388 14.8865 20.6388 15.1424 20.6388C17.0007 20.6518 18.2128 19.6288 18.2128 17.4604C18.2264 15.5742 17.1218 14.578 15.3579 14.578Z" fill="#00D9F5"/>
<path d="M27.4895 11.0886H26.7451V7.49689C26.7451 7.47449 26.7416 7.45192 26.7386 7.42924C26.7374 7.28662 26.692 7.14653 26.5944 7.03555L20.6175 0.207904C20.6157 0.20616 20.6139 0.205541 20.6127 0.203627C20.577 0.163836 20.5355 0.130742 20.4916 0.102095C20.4786 0.0933713 20.4655 0.0860547 20.4519 0.0785129C20.4138 0.057745 20.3735 0.0405228 20.3319 0.0280846C20.3207 0.0249328 20.3106 0.0203177 20.2993 0.017391C20.2542 0.00669752 20.2073 0 20.1598 0H5.47067C4.79991 0 4.25499 0.545538 4.25499 1.21574V11.0883H3.51078C2.55123 11.0883 1.77319 11.866 1.77319 12.8259V21.8616C1.77319 22.8208 2.55123 23.599 3.51078 23.599H4.25504V29.7843C4.25504 30.4544 4.79996 31 5.47073 31H25.5295C26.1996 31 26.7452 30.4545 26.7452 29.7843V23.599H27.4896C28.4488 23.599 29.227 22.8208 29.227 21.8616V12.8261C29.227 11.8663 28.4488 11.0886 27.4895 11.0886ZM5.47067 1.21597H19.5519V7.43582C19.5519 7.77165 19.8244 8.04366 20.1598 8.04366H25.5294V11.089H5.47067V1.21597ZM20.3942 17.3923C20.3942 19.1301 19.7615 20.3283 18.8848 21.0694C17.9296 21.8639 16.4748 22.2408 14.6976 22.2408C13.6339 22.2408 12.8799 22.1735 12.3675 22.1064V13.1905C13.1216 13.0695 14.1054 13.0021 15.1424 13.0021C16.8653 13.0021 17.9834 13.3121 18.8592 13.9716C19.8015 14.6721 20.3942 15.7897 20.3942 17.3923ZM4.54202 22.1468V13.1905C5.17468 13.0833 6.06399 13.0021 7.31648 13.0021C8.58231 13.0021 9.48484 13.2446 10.0907 13.7297C10.6699 14.1874 11.0595 14.9417 11.0595 15.8306C11.0595 16.7198 10.7641 17.4739 10.2249 17.9854C9.52469 18.6454 8.48781 18.9419 7.2754 18.9419C7.00648 18.9419 6.76323 18.9283 6.57553 18.9012V22.147H4.54202V22.1468ZM25.5295 29.4552H5.47067V23.599H25.5294V29.4552H25.5295ZM27.2909 14.7529H23.8021V16.827H27.0615V18.4971H23.8021V22.1468H21.7426V13.0695H27.2909V14.7529Z" fill="#00D9F5"/>
</svg>
