<svg width="30" height="30" fill="none" xmlns="http://www.w3.org/2000/svg"><g clip-path="url(#clip0)" fill="#000"><path d="M25.652 3.93A13.33 13.33 0 0016.164 0a1.063 1.063 0 100 2.126c3.016 0 5.851 1.175 7.984 3.308a11.217 11.217 0 013.308 7.985 1.063 1.063 0 002.126 0 13.33 13.33 0 00-3.93-9.49z"/><path d="M21.278 13.419a1.063 1.063 0 102.127 0c0-3.992-3.249-7.24-7.241-7.241a1.063 1.063 0 000 2.126 5.121 5.121 0 015.114 5.115zM18.925 18.84c-1.62-.084-2.446 1.12-2.842 1.7a1.063 1.063 0 001.755 1.2c.468-.684.68-.791.967-.778.92.109 4.545 2.764 4.908 3.595.09.244.087.484-.01.776-.38 1.129-1.01 1.923-1.822 2.295-.771.353-1.716.32-2.733-.093-3.796-1.547-7.112-3.706-9.857-6.418l-.003-.003c-2.706-2.742-4.86-6.054-6.405-9.844-.414-1.017-.446-1.963-.093-2.733.372-.812 1.166-1.442 2.294-1.822.293-.098.532-.101.774-.01.834.363 3.49 3.987 3.596 4.897.016.298-.093.51-.776.977a1.063 1.063 0 101.2 1.756c.579-.396 1.784-1.219 1.7-2.845-.092-1.699-3.397-6.197-4.975-6.777C5.9 4.45 5.162 4.446 4.407 4.7c-1.7.572-2.927 1.593-3.55 2.95-.604 1.318-.585 2.847.056 4.422 1.653 4.056 3.966 7.605 6.874 10.549a.91.91 0 00.022.021c2.942 2.903 6.487 5.212 10.537 6.863.811.33 1.61.495 2.374.495.72 0 1.408-.146 2.047-.44 1.358-.622 2.378-1.85 2.951-3.55.253-.754.249-1.492-.01-2.19-.583-1.584-5.081-4.888-6.783-4.98z"/></g><defs><clipPath id="clip0"><path fill="#fff" d="M0 0h30v30H0z"/></clipPath></defs></svg>