<svg width="40" height="40" viewBox="0 0 40 40" fill="none" xmlns="http://www.w3.org/2000/svg">
<path fill-rule="evenodd" clip-rule="evenodd" d="M20.0001 5.00008C11.7158 5.00008 5.00008 11.7158 5.00008 20.0001C5.00008 28.2844 11.7158 35.0001 20.0001 35.0001C28.2844 35.0001 35.0001 28.2844 35.0001 20.0001C35.0001 11.7158 28.2844 5.00008 20.0001 5.00008ZM1.66675 20.0001C1.66675 9.87486 9.87486 1.66675 20.0001 1.66675C30.1253 1.66675 38.3334 9.87486 38.3334 20.0001C38.3334 30.1253 30.1253 38.3334 20.0001 38.3334C9.87486 38.3334 1.66675 30.1253 1.66675 20.0001Z" fill="#CFFF80"/>
<path fill-rule="evenodd" clip-rule="evenodd" d="M15.8802 11.864C16.4222 11.5739 17.0797 11.6057 17.5912 11.9467L27.5912 18.6133C28.0548 18.9224 28.3333 19.4428 28.3333 20.0001C28.3333 20.5573 28.0548 21.0777 27.5912 21.3868L17.5912 28.0535C17.0797 28.3945 16.4222 28.4262 15.8802 28.1362C15.3383 27.8462 15 27.2814 15 26.6668V13.3334C15 12.7188 15.3383 12.154 15.8802 11.864ZM18.3333 16.4476V23.5526L23.662 20.0001L18.3333 16.4476Z" fill="#CFFF80"/>
</svg>
