<svg width="80" height="80" viewBox="0 0 80 80" fill="none" xmlns="http://www.w3.org/2000/svg">
<path d="M48.1205 37H50.8795C51.4988 37 52 36.329 52 35.5C52 34.671 51.4988 34 50.8795 34H48.1205C47.5012 34 47 34.671 47 35.5C47 36.329 47.5012 37 48.1205 37Z" fill="black"/>
<path d="M61.8566 37C62.4882 37 63 36.329 63 35.5C63 34.671 62.4882 34 61.8566 34H54.1428C53.5118 34 53 34.671 53 35.5C53 36.329 53.5118 37 54.1428 37H61.8566Z" fill="black"/>
<path d="M48.1205 42H67.8795C68.4982 42 69 41.5527 69 41C69 40.4473 68.4982 40 67.8795 40H48.1205C47.5012 40 47 40.4473 47 41C47 41.5527 47.5012 42 48.1205 42Z" fill="black" stroke="black" stroke-width="0.5"/>
<path d="M48.1205 46H67.8795C68.4982 46 69 45.5527 69 45C69 44.4473 68.4982 44 67.8795 44H48.1205C47.5012 44 47 44.4473 47 45C47 45.5527 47.5012 46 48.1205 46Z" fill="black" stroke="black" stroke-width="0.5"/>
<path d="M48.1205 50H67.8795C68.4982 50 69 49.5527 69 49C69 48.4473 68.4982 48 67.8795 48H48.1205C47.5012 48 47 48.4473 47 49C47 49.5527 47.5012 50 48.1205 50Z" fill="black" stroke="black" stroke-width="0.5"/>
<path d="M48.1421 54H57.8579C58.4891 54 59 53.5523 59 52.9997C59 52.4477 58.4891 52 57.8579 52H48.1421C47.5109 52 47 52.4477 47 52.9997C47 53.5523 47.5109 54 48.1421 54Z" fill="black" stroke="black" stroke-width="0.5"/>
<path d="M58.5785 23.1958H53.6696C50.1172 23.1958 46.7863 24.1596 43.9183 25.8379C41.4986 17.839 34.0818 12 25.3304 12H20.4215C9.71267 12 1 20.7429 1 31.4888C1 42.2354 9.71267 50.9782 20.4215 50.9782H23.783V55.3299C23.783 55.9312 24.1414 56.4665 24.6965 56.694C24.8774 56.7683 25.0666 56.8042 25.2534 56.8042C25.6394 56.8042 26.0177 56.6504 26.3003 56.3604L32.9692 49.5275C33.1137 49.3795 33.2794 49.2616 33.4621 49.1761C34.0178 48.9168 34.5606 48.6314 35.0887 48.3208C35.8648 50.8786 37.1631 53.2737 38.9284 55.3393C39.3332 55.8139 40.0446 55.8687 40.5169 55.462C40.9898 55.0558 41.0444 54.3413 40.6391 53.8674C38.926 51.8625 37.7094 49.5074 37.0562 46.9962C38.5548 45.8514 39.8907 44.4908 41.0098 42.9569C41.3775 42.4529 41.2683 41.7449 40.766 41.3765C40.2637 41.0075 39.5587 41.1165 39.191 41.6211C37.4627 43.9903 35.1534 45.8938 32.5127 47.1253C32.0827 47.3257 31.6944 47.6016 31.3589 47.9453L26.0371 53.3987V50.7613C26.0371 49.6336 25.123 48.7163 23.9998 48.7163H20.4215C10.9552 48.7163 3.25351 40.988 3.25351 31.4888C3.25351 21.9896 10.9552 14.2613 20.4215 14.2613H25.3304C34.7968 14.2613 42.4984 21.9896 42.4984 31.4888C42.4984 33.4465 42.1694 35.3695 41.5209 37.2046C41.3129 37.7929 41.6196 38.439 42.2064 38.6483C42.7921 38.857 43.4366 38.5492 43.6451 37.9603C44.3795 35.8824 44.7519 33.7047 44.7519 31.4888C44.7519 30.3505 44.6532 29.2352 44.4658 28.1499C47.1276 26.4462 50.2852 25.4571 53.6696 25.4571H58.5785C68.0448 25.4571 75.7465 33.1854 75.7465 42.6846C75.7465 52.1843 68.0448 59.9121 58.5785 59.9121H55.0002C53.877 59.9121 52.9629 60.8293 52.9629 61.9571V64.5945L47.6411 59.141C47.3056 58.7973 46.9179 58.5215 46.4873 58.321C45.7436 57.9738 45.0169 57.5694 44.3284 57.1179C43.8073 56.7759 43.1094 56.9227 42.7686 57.4462C42.4279 57.9685 42.5748 58.6694 43.0959 59.0113C43.8743 59.5218 44.6961 59.9799 45.5379 60.3719C45.7206 60.4574 45.8863 60.5759 46.0308 60.7232L52.6991 67.5567C52.9823 67.8461 53.36 68 53.7466 68C53.9334 68 54.1226 67.964 54.3035 67.8898C54.8581 67.6628 55.217 67.127 55.217 66.5257V62.174H58.5779C69.2873 62.174 78 53.4311 78 42.6846C78 31.9386 69.2873 23.1958 58.5785 23.1958Z" fill="black" stroke="black" stroke-width="0.5"/>
<path d="M22.49 38C21.6666 38 21 38.682 21 39.5C21 40.2986 21.6471 41 22.49 41C23.3334 41 24 40.2986 24 39.5C24 38.682 23.3139 38 22.49 38Z" fill="black" stroke="black" stroke-width="0.5"/>
<path d="M25.2685 32.4474C25.9268 31.9978 28 30.5428 28 28.5313C28 26.5199 25.9268 25 22.8053 25C19.5123 25 18 26.7123 18 27.8676C18 28.7025 18.8049 29.0877 19.4639 29.0877C20.7812 29.0877 20.244 27.4398 22.732 27.4398C23.9512 27.4398 24.9269 27.9106 24.9269 28.8954C24.9269 30.0507 23.5611 30.7139 22.7562 31.3134C22.0488 31.8485 21.1222 32.7259 21.1222 34.5662C21.1222 35.679 21.4638 36 22.4637 36C23.6587 36 23.9027 35.5292 23.9027 35.1226C23.9027 34.0098 23.927 33.3679 25.2685 32.4474Z" fill="black" stroke="black" stroke-width="0.5"/>
</svg>
