<svg width="60" height="60" fill="none" xmlns="http://www.w3.org/2000/svg"><path fill-rule="evenodd" clip-rule="evenodd" d="M60 30c0 16.569-13.431 30-30 30C13.431 60 0 46.569 0 30 0 13.431 13.431 0 30 0c16.569 0 30 13.431 30 30zm-14.568.166c0 1.11-.12 2.189-.352 3.231a8.583 8.583 0 01.92 3.876C46 42.092 42.038 46 37.15 46a8.914 8.914 0 01-4.185-1.037 15.59 15.59 0 01-2.796.252c-8.429 0-15.262-6.736-15.262-15.049 0-1.035.107-2.048.308-3.023A8.608 8.608 0 0114 22.728C14 17.907 17.962 14 22.852 14c1.73 0 3.344.492 4.708 1.34.85-.146 1.721-.222 2.61-.222 8.43 0 15.262 6.739 15.262 15.048z" fill="#CFFF80"/><path fill-rule="evenodd" clip-rule="evenodd" d="M37.998 37.359c-.705.986-1.748 1.765-3.102 2.318-1.338.55-2.941.83-4.768.83-2.192 0-4.03-.381-5.466-1.132a7.083 7.083 0 01-2.511-2.2c-.65-.92-.977-1.834-.977-2.719 0-.549.215-1.028.636-1.419.418-.39.954-.584 1.594-.584.523 0 .976.154 1.343.46.352.295.653.73.895 1.289.271.612.565 1.128.875 1.53.301.393.732.722 1.282.98.553.255 1.3.389 2.216.389 1.262 0 2.297-.267 3.074-.79.762-.51 1.131-1.126 1.131-1.88 0-.59-.194-1.058-.589-1.425-.417-.382-.965-.68-1.63-.887-.693-.211-1.634-.443-2.799-.684-1.586-.334-2.931-.73-4-1.18-1.095-.458-1.977-1.094-2.623-1.89-.654-.81-.987-1.825-.987-3.018 0-1.135.348-2.16 1.036-3.043.681-.878 1.679-1.564 2.964-2.03 1.266-.461 2.771-.695 4.478-.695 1.362 0 2.56.156 3.561.464 1.007.308 1.853.723 2.52 1.237.671.52 1.172 1.07 1.484 1.645.316.58.478 1.157.478 1.716 0 .538-.21 1.027-.627 1.452-.417.43-.946.647-1.567.647-.564 0-1.008-.137-1.313-.404-.286-.25-.583-.64-.913-1.196-.38-.713-.84-1.275-1.37-1.672-.513-.385-1.37-.578-2.549-.578-1.091 0-1.983.215-2.643.643-.636.41-.947.883-.947 1.443 0 .342.1.63.307.874.215.263.521.49.909.683.4.198.815.357 1.228.469.424.117 1.135.29 2.111.512 1.236.26 2.371.554 3.374.872 1.018.319 1.895.712 2.613 1.174.73.469 1.308 1.07 1.72 1.79.412.725.62 1.615.62 2.652a5.656 5.656 0 01-1.068 3.357z" fill="#CFFF80"/></svg>