<svg width="80" height="80" viewBox="0 0 80 80" fill="none" xmlns="http://www.w3.org/2000/svg">
<path d="M72.1875 26.875C72.5984 26.875 73.0016 26.7078 73.292 26.417C73.5828 26.1266 73.75 25.7234 73.75 25.3125C73.75 24.9016 73.5828 24.4984 73.292 24.2078C73.0016 23.9172 72.5984 23.75 72.1875 23.75C71.7766 23.75 71.3734 23.917 71.0828 24.2078C70.7922 24.4986 70.625 24.9016 70.625 25.3125C70.625 25.7234 70.792 26.1266 71.0828 26.417C71.3734 26.7078 71.7766 26.875 72.1875 26.875Z" fill="black"/>
<path d="M30.7031 69.323H30.6798C29.817 69.323 29.1173 70.0227 29.1173 70.8855C29.1173 71.7483 29.817 72.448 30.6798 72.448H30.7031C31.5659 72.448 32.2656 71.7483 32.2656 70.8855C32.2656 70.0227 31.5659 69.323 30.7031 69.323Z" fill="black"/>
<path d="M80 62.7486V10.9375C80 8.35281 77.8972 6.25 75.3125 6.25H69.9603V5.3125C69.9603 2.38313 67.5772 0 64.6478 0C61.7184 0 59.3353 2.38313 59.3353 5.3125V6.25H45.2927V5.3125C45.2927 2.38313 42.9095 0 39.9802 0C37.0508 0 34.6677 2.38313 34.6677 5.3125V6.25H20.625V5.3125C20.625 2.38313 18.2419 0 15.3125 0C12.3831 0 10 2.38313 10 5.3125V6.25H4.6875C2.10281 6.25 0 8.35281 0 10.9375V75.3125C0 77.8972 2.10281 80 4.6875 80H62.7486C63.1798 80 63.5703 79.8252 63.853 79.5427L63.8534 79.5423L79.5423 63.8534C79.825 63.5706 80 63.18 80 62.7486ZM62.4603 5.3125C62.4603 4.10625 63.4416 3.125 64.6478 3.125C65.8541 3.125 66.8353 4.10625 66.8353 5.3125V12.9688C66.8353 14.175 65.8541 15.1562 64.6478 15.1562C63.4416 15.1562 62.4603 14.175 62.4603 12.9688V5.3125ZM37.7927 5.3125C37.7927 4.10625 38.7739 3.125 39.9802 3.125C41.1864 3.125 42.1677 4.10625 42.1677 5.3125V12.9688C42.1677 14.175 41.1864 15.1562 39.9802 15.1562C38.7739 15.1562 37.7927 14.175 37.7927 12.9688V5.3125ZM13.125 5.3125C13.125 4.10625 14.1062 3.125 15.3125 3.125C16.5187 3.125 17.5 4.10625 17.5 5.3125V12.9688C17.5 14.175 16.5187 15.1562 15.3125 15.1562C14.1062 15.1562 13.125 14.175 13.125 12.9688V5.3125ZM3.125 75.3125V72.448H24.4531C25.3159 72.448 26.0156 71.7483 26.0156 70.8855C26.0156 70.0227 25.3159 69.323 24.4531 69.323H3.125V26.875H65.9375C66.8003 26.875 67.5 26.1753 67.5 25.3125C67.5 24.4497 66.8003 23.75 65.9375 23.75H3.125V10.9375C3.125 10.0759 3.82594 9.375 4.6875 9.375H10V12.9688C10 15.8981 12.3831 18.2812 15.3125 18.2812C18.2419 18.2812 20.625 15.8981 20.625 12.9688V9.375H34.6677V12.9688C34.6677 15.8981 37.0508 18.2812 39.9802 18.2812C42.9095 18.2812 45.2927 15.8981 45.2927 12.9688V9.375H59.3353V12.9688C59.3353 15.8981 61.7184 18.2812 64.6478 18.2812C67.5772 18.2812 69.9603 15.8981 69.9603 12.9688V9.375H75.3125C76.1741 9.375 76.875 10.0759 76.875 10.9375V61.1861H65.8736C63.2889 61.1861 61.1861 63.2889 61.1861 65.8736V76.875H4.6875C3.82594 76.875 3.125 76.1741 3.125 75.3125ZM64.3111 74.6652V65.8734C64.3111 65.0119 65.012 64.3109 65.8736 64.3109H74.6653L64.3111 74.6652Z" fill="black"/>
<path d="M24.9206 40.5525C24.4606 40.5525 24.0606 40.3925 23.7206 40.0725C23.3806 39.7325 23.2106 39.3325 23.2106 38.8725C23.2106 38.4125 23.3806 38.0125 23.7206 37.6725C24.0606 37.3325 24.4606 37.1625 24.9206 37.1625H35.5706C36.0306 37.1625 36.4206 37.3325 36.7406 37.6725C37.0806 38.0125 37.2506 38.4125 37.2506 38.8725C37.2506 40.0125 36.8306 40.9525 35.9906 41.6925L31.1306 46.1025C31.1106 46.1225 31.1006 46.1425 31.1006 46.1625C31.1006 46.1825 31.1106 46.1925 31.1306 46.1925H31.6106C33.4506 46.1925 34.9006 46.7225 35.9606 47.7825C37.0206 48.8225 37.5506 50.2825 37.5506 52.1625C37.5506 54.4625 36.8506 56.2425 35.4506 57.5025C34.0506 58.7425 32.0506 59.3625 29.4506 59.3625C27.9106 59.3625 26.4206 59.1825 24.9806 58.8225C24.5006 58.7025 24.1106 58.4325 23.8106 58.0125C23.5106 57.5925 23.3606 57.1225 23.3606 56.6025V56.2725C23.3606 55.8725 23.5206 55.5625 23.8406 55.3425C24.1806 55.1025 24.5506 55.0425 24.9506 55.1625C26.5706 55.7025 28.0106 55.9725 29.2706 55.9725C30.5906 55.9725 31.6106 55.6525 32.3306 55.0125C33.0506 54.3725 33.4106 53.4425 33.4106 52.2225C33.4106 51.1025 33.0006 50.3025 32.1806 49.8225C31.3806 49.3225 29.9606 49.0725 27.9206 49.0725H27.5906C27.1906 49.0725 26.8406 48.9225 26.5406 48.6225C26.2606 48.3225 26.1206 47.9725 26.1206 47.5725C26.1206 46.5725 26.4806 45.7425 27.2006 45.0825L32.0906 40.6425C32.1106 40.6225 32.1206 40.6025 32.1206 40.5825C32.1206 40.5625 32.1106 40.5525 32.0906 40.5525H24.9206Z" fill="black"/>
<path d="M52.72 41.9325C52.04 40.7325 51 40.1325 49.6 40.1325C48.2 40.1325 47.16 40.7325 46.48 41.9325C45.8 43.1325 45.46 45.1925 45.46 48.1125C45.46 51.0325 45.8 53.0925 46.48 54.2925C47.16 55.4925 48.2 56.0925 49.6 56.0925C51 56.0925 52.04 55.4925 52.72 54.2925C53.4 53.0925 53.74 51.0325 53.74 48.1125C53.74 45.1925 53.4 43.1325 52.72 41.9325ZM55.9 56.6925C54.52 58.4725 52.42 59.3625 49.6 59.3625C46.78 59.3625 44.67 58.4725 43.27 56.6925C41.89 54.9125 41.2 52.0525 41.2 48.1125C41.2 44.1725 41.89 41.3125 43.27 39.5325C44.67 37.7525 46.78 36.8625 49.6 36.8625C52.42 36.8625 54.52 37.7525 55.9 39.5325C57.3 41.3125 58 44.1725 58 48.1125C58 52.0525 57.3 54.9125 55.9 56.6925Z" fill="black"/>
</svg>
