<svg width="80" height="80" viewBox="0 0 80 80" fill="none" xmlns="http://www.w3.org/2000/svg">
<path d="M39.2766 67.6233C38.9859 67.3326 38.5828 67.1653 38.1719 67.1653C37.7609 67.1653 37.3578 67.3325 37.0672 67.6233C36.7766 67.9137 36.6094 68.3168 36.6094 68.7278C36.6094 69.1404 36.7766 69.5418 37.0672 69.8325C37.3578 70.1246 37.7609 70.2903 38.1719 70.2903C38.5828 70.2903 38.9859 70.1246 39.2766 69.8325C39.5672 69.5418 39.7344 69.1389 39.7344 68.7278C39.7344 68.3168 39.567 67.9137 39.2766 67.6233Z" fill="black"/>
<path d="M46.7159 53.2092V41.7121C46.7159 41.193 46.458 40.7077 46.0279 40.4172C45.5977 40.1267 45.0513 40.0689 44.5696 40.2627L17.6458 51.1059H8.97389C4.02577 51.1059 0 55.1317 0 60.0801C0 65.0286 4.02577 69.0543 8.9742 69.0543H10.0069V78.4375C10.0069 79.3003 10.7064 80 11.5694 80H17.9481C18.8111 80 19.5106 79.3003 19.5106 78.4375V69.8081L44.5704 79.8871C44.7584 79.9628 44.9563 80.0001 45.1532 80.0001C45.4607 80.0001 45.766 79.9093 46.0282 79.7323C46.4582 79.4418 46.7159 78.9565 46.7159 78.4376V66.9406C49.8493 66.2276 52.1958 63.4211 52.1958 60.075C52.1958 56.7289 49.8493 53.9222 46.7159 53.2092ZM16.3854 76.875H13.1319V69.0542H16.3856V76.875H16.3854ZM16.3858 65.9292H8.9742C5.7489 65.9292 3.12499 63.3053 3.12499 60.0801C3.12499 56.8548 5.7489 54.2309 8.9742 54.2309H16.3864L16.3858 65.9292ZM43.591 76.1248H43.5909L19.5114 66.44V53.7234L36.6093 46.8375V62.3437C36.6093 63.2065 37.3088 63.9062 38.1718 63.9062C39.0348 63.9062 39.7343 63.2065 39.7343 62.3437V45.5789L43.591 44.0256V76.1248ZM46.7159 63.6662V56.4834C48.1004 57.0881 49.0709 58.47 49.0709 60.0748C49.0709 61.6797 48.1005 63.0615 46.7159 63.6662Z" fill="black"/>
<path d="M67.1017 58.5586H58.2551C57.3922 58.5586 56.6926 59.2583 56.6926 60.1211C56.6926 60.9839 57.3922 61.6836 58.2551 61.6836H67.1017C67.9646 61.6836 68.6642 60.9839 68.6642 60.1211C68.6642 59.2583 67.9646 58.5586 67.1017 58.5586Z" fill="black"/>
<path d="M59.8467 47.1089C59.2365 46.4989 58.2472 46.4989 57.6369 47.1089L54.5853 50.1604C53.9751 50.7706 53.9751 51.76 54.5853 52.3703C54.8906 52.6753 55.2905 52.8279 55.6903 52.8279C56.0901 52.8279 56.4901 52.6753 56.7951 52.3703L59.8467 49.3187C60.4569 48.7086 60.4569 47.7192 59.8467 47.1089Z" fill="black"/>
<path d="M59.9614 70.7773L56.8078 67.6235C56.1977 67.0135 55.2083 67.0135 54.598 67.6235C53.9878 68.2337 53.9878 69.223 54.598 69.8334L57.7517 72.9871C58.0569 73.2921 58.4567 73.4448 58.8566 73.4448C59.2564 73.4448 59.6564 73.2921 59.9614 72.9871C60.5716 72.3769 60.5716 71.3876 59.9614 70.7773Z" fill="black"/>
<path d="M73.7499 0H44.6874C41.2412 0 38.4375 2.80375 38.4375 6.24999V6.87499H12.1875C10.1197 6.87499 8.4375 8.55733 8.4375 10.625V35.3124C8.4375 37.3801 10.1197 39.0624 12.1875 39.0624H13.802V43.8541C13.802 44.4862 14.1828 45.0559 14.7666 45.2977C14.9598 45.3777 15.1628 45.4166 15.3642 45.4166C15.7708 45.4166 16.1705 45.2579 16.4694 44.959L22.3659 39.0624H53.4031C55.4709 39.0624 57.153 37.3801 57.153 35.3124V30.6249H73.7499C77.1961 30.6249 79.9999 27.8212 79.9999 24.375V6.24999C79.9997 2.80375 77.1961 0 73.7499 0ZM54.028 35.3124C54.028 35.6571 53.7477 35.9374 53.4031 35.9374H21.7187C21.3044 35.9374 20.9069 36.1021 20.6139 36.3951L16.9272 40.082V37.4999C16.9272 36.6371 16.2276 35.9374 15.3647 35.9374H12.1875C11.8428 35.9374 11.5625 35.6571 11.5625 35.3124V10.625C11.5625 10.2803 11.8428 9.99998 12.1875 9.99998H38.4375V24.375C38.4375 27.8212 41.2412 30.6249 44.6874 30.6249H54.028V35.3124ZM76.8749 24.375C76.8749 26.0981 75.473 27.5 73.7499 27.5H44.6874C42.9643 27.5 41.5624 26.0981 41.5624 24.375V6.24999C41.5624 4.52687 42.9643 3.12499 44.6874 3.12499H73.7499C75.473 3.12499 76.8749 4.52687 76.8749 6.24999V24.375Z" fill="black"/>
<path d="M65.496 13.9594L54.8022 7.78534C54.3188 7.50612 53.7232 7.50612 53.2397 7.78534C52.7563 8.0644 52.4585 8.58034 52.4585 9.13846V21.4864C52.4585 22.0445 52.7563 22.5605 53.2397 22.8395C53.4815 22.9792 53.7512 23.0489 54.021 23.0489C54.2908 23.0489 54.5605 22.9792 54.8022 22.8395L65.496 16.6655C65.9794 16.3864 66.2772 15.8705 66.2772 15.3124C66.2772 14.7542 65.9796 14.2385 65.496 13.9594ZM55.5835 18.7802V11.8449L61.5897 15.3125L55.5835 18.7802Z" fill="black"/>
<path d="M33.5173 16.4062H17.8923C17.0294 16.4062 16.3298 17.1059 16.3298 17.9687C16.3298 18.8316 17.0294 19.5312 17.8923 19.5312H33.5173C34.3803 19.5312 35.0798 18.8316 35.0798 17.9687C35.0798 17.1059 34.3803 16.4062 33.5173 16.4062Z" fill="black"/>
<path d="M34.6218 25.6141C34.3311 25.3233 33.928 25.1562 33.5171 25.1562C33.1062 25.1562 32.703 25.3233 32.4124 25.6141C32.1218 25.9047 31.9546 26.3078 31.9546 26.7187C31.9546 27.1297 32.1218 27.5328 32.4124 27.8233C32.703 28.1139 33.1062 28.2812 33.5171 28.2812C33.9296 28.2812 34.3311 28.1141 34.6218 27.8233C34.9124 27.5328 35.0796 27.1297 35.0796 26.7187C35.0796 26.3078 34.9124 25.9047 34.6218 25.6141Z" fill="black"/>
<path d="M27.6562 25.1562H17.8923C17.0294 25.1562 16.3298 25.8559 16.3298 26.7187C16.3298 27.5816 17.0294 28.2812 17.8923 28.2812H27.6562C28.5192 28.2812 29.2187 27.5816 29.2187 26.7187C29.2187 25.8559 28.5192 25.1562 27.6562 25.1562Z" fill="black"/>
</svg>
