<svg width="80" height="80" viewBox="0 0 80 80" fill="none" xmlns="http://www.w3.org/2000/svg">
<path d="M7.8125 0H1.5625C0.699688 0 0 0.699531 0 1.5625V7.8125C0 8.67547 0.699688 9.375 1.5625 9.375H7.8125C8.67531 9.375 9.375 8.67547 9.375 7.8125V1.5625C9.375 0.699531 8.67531 0 7.8125 0ZM6.25 6.25H3.125V3.125H6.25V6.25Z" fill="black"/>
<path d="M7.8125 70.625H1.5625C0.699688 70.625 0 71.3245 0 72.1875V78.4375C0 79.3005 0.699688 80 1.5625 80H7.8125C8.67531 80 9.375 79.3005 9.375 78.4375V72.1875C9.375 71.3245 8.67531 70.625 7.8125 70.625ZM6.25 76.875H3.125V73.75H6.25V76.875Z" fill="black"/>
<path d="M78.4375 0H72.1875C71.3247 0 70.625 0.699531 70.625 1.5625V7.8125C70.625 8.67547 71.3247 9.375 72.1875 9.375H78.4375C79.3003 9.375 80 8.67547 80 7.8125V1.5625C80 0.699531 79.3003 0 78.4375 0ZM76.875 6.25H73.75V3.125H76.875V6.25Z" fill="black"/>
<path d="M78.4375 70.625H72.1875C71.3247 70.625 70.625 71.3245 70.625 72.1875V78.4375C70.625 79.3005 71.3247 80 72.1875 80H78.4375C79.3003 80 80 79.3005 80 78.4375V72.1875C80 71.3245 79.3003 70.625 78.4375 70.625ZM76.875 76.875H73.75V73.75H76.875V76.875Z" fill="black"/>
<path d="M4.6875 12.5C3.82469 12.5 3.125 13.1995 3.125 14.0625V17.1875C3.125 18.0505 3.82469 18.75 4.6875 18.75C5.55031 18.75 6.25 18.0505 6.25 17.1875V14.0625C6.25 13.1995 5.55031 12.5 4.6875 12.5Z" fill="black"/>
<path d="M4.6875 21.875C3.82469 21.875 3.125 22.5745 3.125 23.4375V27.0312C3.125 27.8942 3.82469 28.5938 4.6875 28.5938C5.55031 28.5938 6.25 27.8942 6.25 27.0312V23.4375C6.25 22.5745 5.55031 21.875 4.6875 21.875Z" fill="black"/>
<path d="M4.6875 31.7188C3.82469 31.7188 3.125 32.4183 3.125 33.2812V36.875C3.125 37.738 3.82469 38.4375 4.6875 38.4375C5.55031 38.4375 6.25 37.738 6.25 36.875V33.2812C6.25 32.4183 5.55031 31.7188 4.6875 31.7188Z" fill="black"/>
<path d="M4.6875 42.0312C3.82469 42.0312 3.125 42.7308 3.125 43.5938V46.7188C3.125 47.5817 3.82469 48.2812 4.6875 48.2812C5.55031 48.2812 6.25 47.5817 6.25 46.7188V43.5938C6.25 42.7308 5.55031 42.0312 4.6875 42.0312Z" fill="black"/>
<path d="M4.6875 51.875C3.82469 51.875 3.125 52.5745 3.125 53.4375V56.5625C3.125 57.4255 3.82469 58.125 4.6875 58.125C5.55031 58.125 6.25 57.4255 6.25 56.5625V53.4375C6.25 52.5745 5.55031 51.875 4.6875 51.875Z" fill="black"/>
<path d="M4.6875 61.25C3.82469 61.25 3.125 61.9495 3.125 62.8125V65.9375C3.125 66.8005 3.82469 67.5 4.6875 67.5C5.55031 67.5 6.25 66.8005 6.25 65.9375V62.8125C6.25 61.9495 5.55031 61.25 4.6875 61.25Z" fill="black"/>
<path d="M75.3125 12.5C74.4497 12.5 73.75 13.1995 73.75 14.0625V17.1875C73.75 18.0505 74.4497 18.75 75.3125 18.75C76.1753 18.75 76.875 18.0505 76.875 17.1875V14.0625C76.875 13.1995 76.1753 12.5 75.3125 12.5Z" fill="black"/>
<path d="M75.3125 21.875C74.4497 21.875 73.75 22.5745 73.75 23.4375V27.0312C73.75 27.8942 74.4497 28.5938 75.3125 28.5938C76.1753 28.5938 76.875 27.8942 76.875 27.0312V23.4375C76.875 22.5745 76.1753 21.875 75.3125 21.875Z" fill="black"/>
<path d="M75.3125 31.7188C74.4497 31.7188 73.75 32.4183 73.75 33.2812V36.875C73.75 37.738 74.4497 38.4375 75.3125 38.4375C76.1753 38.4375 76.875 37.738 76.875 36.875V33.2812C76.875 32.4183 76.1753 31.7188 75.3125 31.7188Z" fill="black"/>
<path d="M75.3125 42.0312C74.4497 42.0312 73.75 42.7308 73.75 43.5938V46.7188C73.75 47.5817 74.4497 48.2812 75.3125 48.2812C76.1753 48.2812 76.875 47.5817 76.875 46.7188V43.5938C76.875 42.7308 76.1753 42.0312 75.3125 42.0312Z" fill="black"/>
<path d="M75.3125 51.875C74.4497 51.875 73.75 52.5745 73.75 53.4375V56.5625C73.75 57.4255 74.4497 58.125 75.3125 58.125C76.1753 58.125 76.875 57.4255 76.875 56.5625V53.4375C76.875 52.5745 76.1753 51.875 75.3125 51.875Z" fill="black"/>
<path d="M75.3125 61.25C74.4497 61.25 73.75 61.9495 73.75 62.8125V65.9375C73.75 66.8005 74.4497 67.5 75.3125 67.5C76.1753 67.5 76.875 66.8005 76.875 65.9375V62.8125C76.875 61.9495 76.1753 61.25 75.3125 61.25Z" fill="black"/>
<path d="M17.6562 73.75H14.5312C13.6684 73.75 12.9688 74.4495 12.9688 75.3125C12.9688 76.1755 13.6684 76.875 14.5312 76.875H17.6562C18.5191 76.875 19.2188 76.1755 19.2188 75.3125C19.2188 74.4495 18.5191 73.75 17.6562 73.75Z" fill="black"/>
<path d="M27.0312 73.75H23.9062C23.0434 73.75 22.3438 74.4495 22.3438 75.3125C22.3438 76.1755 23.0434 76.875 23.9062 76.875H27.0312C27.8941 76.875 28.5938 76.1755 28.5938 75.3125C28.5938 74.4495 27.8941 73.75 27.0312 73.75Z" fill="black"/>
<path d="M36.875 73.75H33.75C32.8872 73.75 32.1875 74.4495 32.1875 75.3125C32.1875 76.1755 32.8872 76.875 33.75 76.875H36.875C37.7378 76.875 38.4375 76.1755 38.4375 75.3125C38.4375 74.4495 37.7378 73.75 36.875 73.75Z" fill="black"/>
<path d="M46.25 73.75H43.125C42.2622 73.75 41.5625 74.4495 41.5625 75.3125C41.5625 76.1755 42.2622 76.875 43.125 76.875H46.25C47.1128 76.875 47.8125 76.1755 47.8125 75.3125C47.8125 74.4495 47.1128 73.75 46.25 73.75Z" fill="black"/>
<path d="M56.0938 73.75H52.9688C52.1059 73.75 51.4062 74.4495 51.4062 75.3125C51.4062 76.1755 52.1059 76.875 52.9688 76.875H56.0938C56.9566 76.875 57.6562 76.1755 57.6562 75.3125C57.6562 74.4495 56.9566 73.75 56.0938 73.75Z" fill="black"/>
<path d="M65.4688 73.75H62.3438C61.4809 73.75 60.7812 74.4495 60.7812 75.3125C60.7812 76.1755 61.4809 76.875 62.3438 76.875H65.4688C66.3316 76.875 67.0312 76.1755 67.0312 75.3125C67.0312 74.4495 66.3316 73.75 65.4688 73.75Z" fill="black"/>
<path d="M17.6562 3.125H14.5312C13.6684 3.125 12.9688 3.82453 12.9688 4.6875C12.9688 5.55047 13.6684 6.25 14.5312 6.25H17.6562C18.5191 6.25 19.2188 5.55047 19.2188 4.6875C19.2188 3.82453 18.5191 3.125 17.6562 3.125Z" fill="black"/>
<path d="M27.0312 3.125H23.9062C23.0434 3.125 22.3438 3.82453 22.3438 4.6875C22.3438 5.55047 23.0434 6.25 23.9062 6.25H27.0312C27.8941 6.25 28.5938 5.55047 28.5938 4.6875C28.5938 3.82453 27.8941 3.125 27.0312 3.125Z" fill="black"/>
<path d="M36.875 3.125H33.75C32.8872 3.125 32.1875 3.82453 32.1875 4.6875C32.1875 5.55047 32.8872 6.25 33.75 6.25H36.875C37.7378 6.25 38.4375 5.55047 38.4375 4.6875C38.4375 3.82453 37.7378 3.125 36.875 3.125Z" fill="black"/>
<path d="M46.25 3.125H43.125C42.2622 3.125 41.5625 3.82453 41.5625 4.6875C41.5625 5.55047 42.2622 6.25 43.125 6.25H46.25C47.1128 6.25 47.8125 5.55047 47.8125 4.6875C47.8125 3.82453 47.1128 3.125 46.25 3.125Z" fill="black"/>
<path d="M56.0938 3.125H52.9688C52.1059 3.125 51.4062 3.82453 51.4062 4.6875C51.4062 5.55047 52.1059 6.25 52.9688 6.25H56.0938C56.9566 6.25 57.6562 5.55047 57.6562 4.6875C57.6562 3.82453 56.9566 3.125 56.0938 3.125Z" fill="black"/>
<path d="M65.4688 3.125H62.3438C61.4809 3.125 60.7812 3.82453 60.7812 4.6875C60.7812 5.55047 61.4809 6.25 62.3438 6.25H65.4688C66.3316 6.25 67.0312 5.55047 67.0312 4.6875C67.0312 3.82453 66.3316 3.125 65.4688 3.125Z" fill="black"/>
<path d="M65.4688 12.5H14.5312C13.6684 12.5 12.9688 13.1995 12.9688 14.0625V65.9375C12.9688 66.8005 13.6684 67.5 14.5312 67.5H65.4688C66.3316 67.5 67.0312 66.8005 67.0312 65.9375V14.0625C67.0312 13.1995 66.3316 12.5 65.4688 12.5ZM63.9062 64.375H16.0938V15.625H63.9062V64.375Z" fill="black"/>
<path d="M59.2188 18.75H20.7812C19.9184 18.75 19.2188 19.4495 19.2188 20.3125V33.2812C19.2188 34.1442 19.9184 34.8438 20.7812 34.8438H27.0312C27.8941 34.8438 28.5938 34.1442 28.5938 33.2812V28.5938H35.3125V51.875H30.625C29.7622 51.875 29.0625 52.5745 29.0625 53.4375V59.6875C29.0625 60.5505 29.7622 61.25 30.625 61.25H49.375C50.2378 61.25 50.9375 60.5505 50.9375 59.6875V53.4375C50.9375 52.5745 50.2378 51.875 49.375 51.875H44.6875V28.5938H51.4062V33.2812C51.4062 34.1442 52.1059 34.8438 52.9688 34.8438H59.2188C60.0816 34.8438 60.7812 34.1442 60.7812 33.2812V20.3125C60.7812 19.4495 60.0816 18.75 59.2188 18.75ZM57.6562 31.7188H54.5312V27.0312C54.5312 26.1683 53.8316 25.4688 52.9688 25.4688H43.125C42.2622 25.4688 41.5625 26.1683 41.5625 27.0312V53.4375C41.5625 54.3005 42.2622 55 43.125 55H47.8125V58.125H32.1875V55H36.875C37.7378 55 38.4375 54.3005 38.4375 53.4375V27.0312C38.4375 26.1683 37.7378 25.4688 36.875 25.4688H27.0312C26.1684 25.4688 25.4688 26.1683 25.4688 27.0312V31.7188H22.3438V21.875H57.6562V31.7188Z" fill="black"/>
</svg>
