<svg width="80" height="80" viewBox="0 0 80 80" fill="none" xmlns="http://www.w3.org/2000/svg">
<path d="M29.7205 31.639C29.2616 30.9081 28.2975 30.6875 27.5664 31.1464L20.8124 35.3857C20.0814 35.8445 19.8608 36.8089 20.3197 37.5398C20.6164 38.0126 21.1247 38.2718 21.6446 38.2718C21.9283 38.2718 22.2155 38.1945 22.4738 38.0325L29.2278 33.7931C29.9588 33.3343 30.1794 32.37 29.7205 31.639Z" fill="black"/>
<path d="M19.1656 38.267C18.7075 37.5359 17.7439 37.3142 17.012 37.772L16.9806 37.7917C16.2492 38.2498 16.0277 39.2138 16.4856 39.9452C16.7822 40.4188 17.2909 40.6787 17.8114 40.6787C18.0947 40.6787 18.3814 40.6017 18.6392 40.4402L18.6706 40.4206C19.402 39.9624 19.6236 38.9984 19.1656 38.267Z" fill="black"/>
<path d="M79.7333 0.690626C79.2944 0.037971 78.4386 -0.186716 77.7358 0.166408L31.4822 23.3925C30.9598 23.6546 30.6276 24.1864 30.6209 24.7707C30.614 25.3551 30.9339 25.8943 31.45 26.1685L40.5614 31.0112L19.7748 44.0593C19.3023 44.3559 19.0239 44.8816 19.0441 45.439C19.0641 45.9963 19.3797 46.5007 19.8722 46.7624L29.9962 52.1433L0.548946 77.2483C-0.0619899 77.7691 -0.178865 78.668 0.278478 79.3277C0.58004 79.7623 1.06613 80 1.56363 80C1.82113 80 2.08144 79.9364 2.32082 79.8036L49.8168 53.4476C50.3176 53.1696 50.6262 52.6399 50.621 52.0671C50.6159 51.4944 50.2978 50.9702 49.7918 50.7015L40.5378 45.7827L62.1259 31.8862C62.5938 31.5849 62.8662 31.0573 62.8409 30.5012C62.8155 29.9451 62.4963 29.4445 62.0029 29.187L54.0113 25.0175L79.466 2.73843C80.0579 2.22047 80.1725 1.34328 79.7333 0.690626ZM50.2345 24.1706C49.8464 24.5103 49.6509 25.0198 49.712 25.5318C49.7734 26.044 50.0834 26.4929 50.5407 26.7315L58.1737 30.7139L36.6054 44.5976C36.1393 44.8977 35.8668 45.4226 35.8901 45.9766C35.9131 46.5307 36.2283 47.031 36.7179 47.2912L45.7853 52.1107L14.4652 69.4906L33.7719 53.031C34.1656 52.6954 34.3676 52.1866 34.3115 51.6724C34.2554 51.158 33.9484 50.7051 33.4915 50.4622L23.7233 45.2704L44.51 32.222C44.9823 31.9254 45.2609 31.3996 45.2407 30.8423C45.2207 30.2849 44.9051 29.7806 44.4126 29.5189L35.5868 24.8281L68.1855 8.45889L50.2345 24.1706Z" fill="black"/>
<path d="M59.2621 54.2815C58.8426 53.5272 57.8907 53.2562 57.1371 53.6756L57.1046 53.6937C56.3505 54.1132 56.0791 55.0646 56.4988 55.8189C56.7844 56.3325 57.3168 56.622 57.8655 56.622C58.1227 56.622 58.3833 56.5584 58.6238 56.4246L58.6563 56.4065C59.4104 55.987 59.6818 55.0356 59.2621 54.2815Z" fill="black"/>
<path d="M55.3051 56.4784C54.8861 55.7239 53.9349 55.4516 53.1805 55.8705L46.208 59.7398C45.4535 60.1586 45.1813 61.1097 45.5999 61.8642C45.8854 62.3786 46.4182 62.6687 46.9676 62.6687C47.2241 62.6687 47.4843 62.6055 47.7244 62.4722L54.6969 58.6028C55.4515 58.1841 55.7236 57.233 55.3051 56.4784Z" fill="black"/>
</svg>
