<svg width="80" height="80" viewBox="0 0 80 80" fill="none" xmlns="http://www.w3.org/2000/svg">
<path d="M72.1875 26.875C72.5984 26.875 73.0016 26.7078 73.292 26.417C73.5828 26.1266 73.75 25.7234 73.75 25.3125C73.75 24.9016 73.5828 24.4984 73.292 24.2078C73.0016 23.9172 72.5984 23.75 72.1875 23.75C71.7766 23.75 71.3734 23.917 71.0828 24.2078C70.7922 24.4986 70.625 24.9016 70.625 25.3125C70.625 25.7234 70.792 26.1266 71.0828 26.417C71.3734 26.7078 71.7766 26.875 72.1875 26.875Z" fill="black"/>
<path d="M30.7031 69.323H30.6798C29.817 69.323 29.1173 70.0227 29.1173 70.8855C29.1173 71.7483 29.817 72.448 30.6798 72.448H30.7031C31.5659 72.448 32.2656 71.7483 32.2656 70.8855C32.2656 70.0227 31.5659 69.323 30.7031 69.323Z" fill="black"/>
<path d="M80 62.7486V10.9375C80 8.35281 77.8972 6.25 75.3125 6.25H69.9603V5.3125C69.9603 2.38313 67.5772 0 64.6478 0C61.7184 0 59.3353 2.38313 59.3353 5.3125V6.25H45.2927V5.3125C45.2927 2.38313 42.9095 0 39.9802 0C37.0508 0 34.6677 2.38313 34.6677 5.3125V6.25H20.625V5.3125C20.625 2.38313 18.2419 0 15.3125 0C12.3831 0 10 2.38313 10 5.3125V6.25H4.6875C2.10281 6.25 0 8.35281 0 10.9375V75.3125C0 77.8972 2.10281 80 4.6875 80H62.7486C63.1798 80 63.5703 79.8252 63.853 79.5427L63.8534 79.5423L79.5423 63.8534C79.825 63.5706 80 63.18 80 62.7486ZM62.4603 5.3125C62.4603 4.10625 63.4416 3.125 64.6478 3.125C65.8541 3.125 66.8353 4.10625 66.8353 5.3125V12.9688C66.8353 14.175 65.8541 15.1562 64.6478 15.1562C63.4416 15.1562 62.4603 14.175 62.4603 12.9688V5.3125ZM37.7927 5.3125C37.7927 4.10625 38.7739 3.125 39.9802 3.125C41.1864 3.125 42.1677 4.10625 42.1677 5.3125V12.9688C42.1677 14.175 41.1864 15.1562 39.9802 15.1562C38.7739 15.1562 37.7927 14.175 37.7927 12.9688V5.3125ZM13.125 5.3125C13.125 4.10625 14.1062 3.125 15.3125 3.125C16.5187 3.125 17.5 4.10625 17.5 5.3125V12.9688C17.5 14.175 16.5187 15.1562 15.3125 15.1562C14.1062 15.1562 13.125 14.175 13.125 12.9688V5.3125ZM3.125 75.3125V72.448H24.4531C25.3159 72.448 26.0156 71.7483 26.0156 70.8855C26.0156 70.0227 25.3159 69.323 24.4531 69.323H3.125V26.875H65.9375C66.8003 26.875 67.5 26.1753 67.5 25.3125C67.5 24.4497 66.8003 23.75 65.9375 23.75H3.125V10.9375C3.125 10.0759 3.82594 9.375 4.6875 9.375H10V12.9688C10 15.8981 12.3831 18.2812 15.3125 18.2812C18.2419 18.2812 20.625 15.8981 20.625 12.9688V9.375H34.6677V12.9688C34.6677 15.8981 37.0508 18.2812 39.9802 18.2812C42.9095 18.2812 45.2927 15.8981 45.2927 12.9688V9.375H59.3353V12.9688C59.3353 15.8981 61.7184 18.2812 64.6478 18.2812C67.5772 18.2812 69.9603 15.8981 69.9603 12.9688V9.375H75.3125C76.1741 9.375 76.875 10.0759 76.875 10.9375V61.1861H65.8736C63.2889 61.1861 61.1861 63.2889 61.1861 65.8736V76.875H4.6875C3.82594 76.875 3.125 76.1741 3.125 75.3125ZM64.3111 74.6652V65.8734C64.3111 65.0119 65.012 64.3109 65.8736 64.3109H74.6653L64.3111 74.6652Z" fill="black"/>
<path d="M34.4287 40.5525C33.9687 40.5525 33.5687 40.3925 33.2287 40.0725C32.8887 39.7325 32.7187 39.3325 32.7187 38.8725C32.7187 38.4125 32.8887 38.0125 33.2287 37.6725C33.5687 37.3325 33.9687 37.1625 34.4287 37.1625H45.9187C46.3787 37.1625 46.7787 37.3325 47.1187 37.6725C47.4587 38.0125 47.6287 38.4125 47.6287 38.8725C47.6287 39.9725 47.3287 41.0325 46.7287 42.0525C44.0887 46.6125 41.8287 51.7425 39.9487 57.4425C39.7887 57.9225 39.4987 58.3125 39.0787 58.6125C38.6787 58.9125 38.2287 59.0625 37.7287 59.0625H36.6787C36.2587 59.0625 35.9287 58.8925 35.6887 58.5525C35.4487 58.2125 35.3987 57.8425 35.5387 57.4425C37.7387 51.3425 40.4287 45.7525 43.6087 40.6725V40.6125C43.6087 40.5725 43.5987 40.5525 43.5787 40.5525H34.4287Z" fill="black"/>
</svg>
