<svg width="60" height="60" fill="none" xmlns="http://www.w3.org/2000/svg"><path fill-rule="evenodd" clip-rule="evenodd" d="M30 0c16.569 0 30 13.431 30 30 0 16.569-13.431 30-30 30C13.431 60 0 46.569 0 30 0 13.431 13.431 0 30 0zm1.797 12.22c2.04.255 3.688.746 5.497 1.628 1.779.87 2.917 1.694 4.423 3.192 1.412 1.415 2.194 2.486 3.025 4.15 1.156 2.321 1.814 5.08 1.927 8.118.041 1.036.012 1.267-.226 1.563-.45.574-1.44.48-1.779-.166-.106-.213-.136-.397-.172-1.226-.059-1.273-.148-2.096-.326-3.078-.7-3.855-2.55-6.934-5.503-9.142-2.46-1.848-5.004-2.748-8.337-2.943-1.127-.065-1.322-.106-1.577-.302-.475-.373-.498-1.25-.042-1.658.279-.254.475-.29 1.441-.26a24.58 24.58 0 011.649.124zm-13.556.64c.208.07.528.236.712.355 1.126.746 4.263 4.754 5.29 6.756.586 1.142.782 1.989.598 2.616-.19.675-.504 1.03-1.91 2.162-.563.456-1.09.923-1.173 1.048-.214.308-.386.912-.386 1.338.006.989.646 2.783 1.488 4.162.653 1.072 1.82 2.445 2.977 3.5 1.358 1.243 2.556 2.09 3.908 2.759 1.737.864 2.799 1.083 3.576.722a2.88 2.88 0 00.468-.26c.06-.054.516-.61 1.014-1.226.96-1.208 1.18-1.404 1.838-1.629.837-.284 1.69-.207 2.55.231.653.338 2.076 1.22 2.995 1.86 1.21.846 3.795 2.954 4.145 3.375.616.757.723 1.728.308 2.8-.439 1.13-2.147 3.25-3.338 4.157-1.08.817-1.845 1.13-2.853 1.178-.83.041-1.174-.03-2.235-.468-8.326-3.428-14.973-8.544-20.25-15.572-2.758-3.67-4.857-7.478-6.292-11.427-.836-2.303-.878-3.304-.19-4.482.297-.498 1.56-1.73 2.479-2.416 1.53-1.137 2.235-1.557 2.799-1.676.385-.083 1.055-.017 1.482.137zm13.965 3.653c3.6.527 6.386 2.196 8.213 4.908 1.026 1.528 1.666 3.322 1.885 5.246.078.705.078 1.99-.006 2.203-.077.2-.326.473-.54.586-.23.118-.723.106-.995-.036-.457-.23-.593-.598-.593-1.593 0-1.533-.398-3.15-1.085-4.405a9.006 9.006 0 00-3.31-3.44c-1.191-.71-2.952-1.237-4.56-1.367-.58-.048-.9-.166-1.12-.42a1.077 1.077 0 01-.09-1.339c.31-.48.784-.556 2.2-.343zm1.263 4.47c1.168.249 2.064.693 2.828 1.41.985.929 1.525 2.054 1.762 3.67.16 1.054.095 1.468-.28 1.812-.349.32-.995.331-1.387.03-.284-.214-.373-.439-.439-1.049-.077-.81-.219-1.38-.462-1.906-.522-1.12-1.44-1.7-2.995-1.889-.729-.089-.948-.171-1.186-.45-.432-.515-.266-1.35.332-1.658.226-.112.32-.124.819-.094.308.017.765.07 1.008.124z" fill="#CFFF80"/></svg>