<svg width="60" height="60" fill="none" xmlns="http://www.w3.org/2000/svg"><path fill-rule="evenodd" clip-rule="evenodd" d="M60 30c0 16.569-13.431 30-30 30C13.431 60 0 46.569 0 30 0 13.431 13.431 0 30 0c16.569 0 30 13.431 30 30zM30.982 46.69h.007c9.835-.003 17.835-8.005 17.839-17.838a17.73 17.73 0 00-5.22-12.62A17.724 17.724 0 0030.988 11c-9.832 0-17.834 8.002-17.838 17.838a17.807 17.807 0 002.38 8.918L13 47l9.457-2.48a17.823 17.823 0 008.524 2.17z" fill="#CFFF80"/><path fill-rule="evenodd" clip-rule="evenodd" d="M23.436 41.611l-.541-.321-5.612 1.472 1.498-5.472-.353-.56a14.79 14.79 0 01-2.267-7.891c.004-8.175 6.655-14.826 14.834-14.826a14.726 14.726 0 0110.482 4.348 14.738 14.738 0 014.339 10.49c-.004 8.175-6.655 14.827-14.827 14.827h-.006a14.804 14.804 0 01-7.547-2.067zm15.93-8.918c.31.15.52.251.61.4.111.187.111 1.08-.26 2.12-.372 1.042-2.152 1.992-3.009 2.12-.767.115-1.74.163-2.807-.177a25.595 25.595 0 01-2.541-.939c-4.179-1.804-7.003-5.854-7.536-6.62a5.421 5.421 0 00-.079-.11l-.003-.005c-.236-.315-1.817-2.424-1.817-4.606 0-2.053 1.009-3.13 1.473-3.625l.087-.094c.409-.446.892-.557 1.189-.557.297 0 .595.002.854.015.032.002.066.002.1.002.26-.002.584-.004.903.764.123.295.303.733.493 1.194.383.934.807 1.966.881 2.115.112.223.186.483.038.781a15.62 15.62 0 00-.063.127c-.112.228-.194.396-.383.617l-.229.274a7.355 7.355 0 01-.44.506c-.223.223-.455.464-.195.91.26.447 1.154 1.906 2.48 3.088 1.424 1.27 2.662 1.808 3.29 2.08.122.053.221.096.294.132.446.224.706.186.966-.111.26-.298 1.114-1.302 1.411-1.748.297-.446.594-.372 1.003-.223.409.149 2.6 1.227 3.046 1.45l.243.12z" fill="#CFFF80"/></svg>